<svg width="100" height="100" fill="none" xmlns="http://www.w3.org/2000/svg"><g clip-path="url(#clip0)"><path d="M49.9 0c-.2 0-.5.1-.6.3-1.8 3.9-5.2 6.8-8.2 9.9-2.1 2.2-4.3 4.4-4.6 7.4-2.4-1.9-5.5-1.9-8.5-2-4.2-.1-8.7.3-12.8-1.2-.2-.1-.5 0-.6.2-.2.2-.3.4-.2.6 1.5 4 1.1 8.5 1.2 12.8.1 3 .1 6.2 2 8.5-3 .4-5.3 2.5-7.4 4.6-3.1 2.9-6 6.4-9.9 8.2-.2.1-.3.3-.3.6 0 .2.1.5.3.6 3.9 1.8 6.8 5.2 9.9 8.2 2.2 2.1 4.4 4.3 7.4 4.6-1.9 2.4-1.9 5.5-2 8.5-.1 4.2.3 8.7-1.2 12.8-.1.2 0 .5.2.6.2.2.4.3.6.2 4-1.5 8.5-1.1 12.8-1.2 3-.1 6.2-.1 8.5-2 .4 3 2.5 5.3 4.6 7.4 2.9 3.1 6.4 6 8.2 9.9.1.2.3.3.6.3.2 0 .5-.1.6-.3 1.8-3.9 5.2-6.8 8.2-9.9 2.1-2.2 4.3-4.4 4.6-7.4 2.4 1.9 5.5 1.9 8.5 2 4.2.1 8.7-.3 12.8 1.2.2.1.5 0 .6-.2.2-.2.3-.4.2-.6-1.5-4-1.1-8.5-1.2-12.8-.1-3-.1-6.2-2-8.5 3-.4 5.3-2.5 7.4-4.6 3.1-2.9 6-6.4 9.9-8.2.2-.1.3-.3.3-.6 0-.2-.1-.5-.3-.6-3.9-1.8-6.8-5.2-9.9-8.2-2.2-2.1-4.4-4.3-7.4-4.6 1.9-2.4 1.9-5.5 2-8.5.1-4.2-.3-8.7 1.2-12.8.1-.2 0-.5-.2-.6-.2-.2-.4-.3-.6-.2-4 1.5-8.5 1.1-12.8 1.2-3 .1-6.2.1-8.5 2-.4-3-2.5-5.3-4.6-7.4-2.9-3.1-6.4-6-8.2-9.9-.2-.2-.4-.3-.6-.3z" fill="#F9EEE5"/><path d="M36.5 17.6c.4-3 2.5-5.3 4.6-7.4 2.9-3.1 6.4-6 8.2-9.9.1-.2.3-.3.6-.3.2 0 .5.1.6.3 1.8 3.9 5.2 6.8 8.2 9.9 2.1 2.2 4.3 4.4 4.6 7.4 2.4-1.9 5.5-1.9 8.5-2 4.2-.1 8.7.3 12.8-1.2.2-.1.5 0 .6.2.2.2.3.4.2.6-1.5 4-1.1 8.5-1.2 12.8-.1 3-.1 6.2-2 8.5 3 .4 5.3 2.5 7.4 4.6 3.1 2.9 6 6.4 9.9 8.2.2.1.3.3.3.6 0 .2-.1.5-.3.6-3.9 1.8-6.8 5.2-9.9 8.2-2.2 2.1-4.4 4.3-7.4 4.6 1.9 2.4 1.9 5.5 2 8.5.1 4.2-.3 8.7 1.2 12.8.1.2 0 .5-.2.6-.2.2-.4.3-.6.2-4-1.5-8.5-1.1-12.8-1.2-3-.1-6.2-.1-8.5-2-.4 3-2.5 5.3-4.6 7.4-2.9 3.1-6.4 6-8.2 9.9-.1.2-.3.3-.6.3-.2 0-.5-.1-.6-.3-1.8-3.9-5.2-6.8-8.2-9.9-2.1-2.2-4.3-4.4-4.6-7.4-2.4 1.9-5.5 1.9-8.5 2-4.2.1-8.7-.3-12.8 1.2-.2.1-.5 0-.6-.2-.2-.2-.3-.4-.2-.6 1.5-4 1.1-8.5 1.2-12.8.1-3 .1-6.2 2-8.5-3-.4-5.3-2.5-7.4-4.6-3.1-2.9-6-6.4-9.9-8.2-.2-.2-.3-.4-.3-.6 0-.2.1-.5.3-.6 3.9-1.8 6.8-5.2 9.9-8.2 2.2-2.1 4.4-4.3 7.4-4.6-1.9-2.4-1.9-5.5-2-8.5-.1-4.2.3-8.7-1.2-12.8-.1-.2 0-.5.2-.6.2-.2.4-.3.6-.2 4 1.5 8.5 1.1 12.8 1.2 3 .1 6.2.2 8.5 2zm13.4 12.1c-2.6 0-5.2.5-7.7 1.5-2.5 1.1-4.7 2.6-6.5 4.4-1.8 1.8-3.4 4-4.4 6.5-1 2.5-1.5 5.1-1.5 7.7 0 2.6.5 5.2 1.5 7.7 1.1 2.5 2.6 4.7 4.4 6.5 1.8 1.8 4 3.4 6.5 4.4 2.5 1 5.1 1.5 7.7 1.5 2.6 0 5.2-.5 7.7-1.5 2.5-1.1 4.7-2.6 6.5-4.4 1.8-1.8 3.4-4 4.4-6.5 1-2.5 1.5-5.1 1.5-7.7 0-2.6-.5-5.2-1.5-7.7-1.1-2.5-2.6-4.7-4.4-6.5-1.8-1.8-4-3.4-6.5-4.4-2.5-1-5.1-1.5-7.7-1.5zm0-26.3c-2.4 2.8-5.2 5.1-7.7 7.9-2.6 2.8-4.7 7-2.6 10.7 2.1-.4 4.1.7 5.3 2.4.5-2.3 2.5-4.3 5.1-4.3 2.6 0 4.6 2 5.1 4.3 1.2-1.7 3.2-2.8 5.3-2.4 2-3.7 0-7.9-2.6-10.7-2.7-2.7-5.5-5-7.9-7.9zM82.7 17c-3.7.3-7.3-.1-11 .1-3.9.2-8.3 1.7-9.4 5.7 1.8 1.2 2.4 3.4 2.1 5.4 2-1.3 4.8-1.3 6.7.5 1.9 1.9 1.8 4.6.5 6.7 2-.4 4.2.3 5.4 2.1 4-1.2 5.5-5.6 5.7-9.4.1-3.7-.3-7.4 0-11.1zm13.6 32.9c-2.8-2.4-5.1-5.2-7.9-7.7-2.8-2.6-7-4.7-10.7-2.6.4 2.1-.7 4.1-2.4 5.3 2.3.5 4.3 2.5 4.3 5.1 0 2.6-2 4.6-4.3 5.1 1.7 1.2 2.8 3.2 2.4 5.3 3.7 2 7.9 0 10.7-2.6 2.8-2.7 5.1-5.5 7.9-7.9zM82.7 82.7c-.3-3.7.1-7.3-.1-11-.2-3.9-1.7-8.3-5.7-9.4-1.2 1.7-3.4 2.4-5.4 2.1 1.3 2 1.3 4.8-.5 6.7-1.9 1.9-4.6 1.8-6.7.5.4 2-.3 4.2-2.1 5.4 1.2 4 5.6 5.5 9.4 5.7 3.8.1 7.4-.3 11.1 0zM49.9 96.3c2.4-2.8 5.2-5.1 7.7-7.9 2.6-2.8 4.7-7 2.6-10.7-2.1.4-4.1-.7-5.3-2.4-.5 2.3-2.5 4.3-5.1 4.3-2.6 0-4.6-2-5.1-4.3-1.2 1.7-3.2 2.8-5.3 2.4-2 3.7 0 7.9 2.6 10.7 2.6 2.8 5.5 5.1 7.9 7.9zM17 82.7c3.7-.3 7.3.1 11-.1 3.9-.2 8.3-1.7 9.4-5.7-1.8-1.2-2.4-3.4-2.1-5.4-2 1.3-4.8 1.3-6.7-.5-1.9-1.9-1.8-4.6-.5-6.7-2 .4-4.2-.3-5.4-2.1-4 1.2-5.5 5.6-5.7 9.4 0 3.8.4 7.4 0 11.1zM3.4 49.9c2.8 2.4 5.1 5.2 7.9 7.7 2.8 2.6 7 4.7 10.7 2.6-.4-2.1.7-4.1 2.4-5.3-2.4-.4-4.4-2.4-4.4-5s2-4.6 4.3-5.1c-1.7-1.2-2.8-3.2-2.4-5.3-3.7-2-7.9 0-10.7 2.6-2.6 2.5-4.9 5.4-7.8 7.8zM17 17c.3 3.7-.1 7.3.1 11 .2 3.9 1.7 8.3 5.7 9.4 1.2-1.8 3.4-2.4 5.4-2.1-1.3-2-1.3-4.8.5-6.7 1.9-1.9 4.6-1.8 6.7-.5-.4-2 .3-4.2 2.1-5.4-1.2-4-5.6-5.5-9.4-5.7-3.7 0-7.4.4-11.1 0zm32.9 5.4c-2.5 0-3.6 3.5-2.9 5.6.3 0 .5-.1.8-.1-.2-1.3.7-2.8 2.1-2.8 1.4 0 2.3 1.5 2.1 2.8.3 0 .5.1.8.1.7-2.1-.4-5.6-2.9-5.6zm19.4 8c-1.8-1.8-5.1-.1-6 1.9.2.2.4.3.6.5.8-1 2.5-1.5 3.5-.5s.5 2.7-.5 3.5c.2.2.3.4.5.6 2-.9 3.7-4.2 1.9-6zm8.1 19.5c0-2.5-3.5-3.6-5.6-2.9 0 .3.1.5.1.8 1.3-.2 2.8.7 2.8 2.1 0 1.4-1.5 2.3-2.8 2.1 0 .3-.1.5-.1.8 2 .7 5.6-.4 5.6-2.9zm-8.1 19.4c1.8-1.8.1-5.1-1.9-6-.2.2-.3.4-.5.6 1 .8 1.5 2.5.5 3.5s-2.7.5-3.5-.5c-.2.2-.4.3-.6.5 1 2 4.2 3.7 6 1.9zm-19.4 8.1c2.5 0 3.6-3.5 2.9-5.6-.3 0-.5.1-.8.1.2 1.3-.7 2.8-2.1 2.8-1.4 0-2.3-1.5-2.1-2.8-.3 0-.5-.1-.8-.1-.8 2 .3 5.6 2.9 5.6zm-19.5-8.1c1.8 1.8 5.1.1 6-1.9-.2-.2-.4-.3-.6-.5-.8 1-2.5 1.5-3.5.5s-.5-2.7.5-3.5c-.2-.2-.3-.4-.5-.6-1.9 1-3.7 4.2-1.9 6zm-8-19.4c0 2.5 3.5 3.6 5.6 2.9 0-.3-.1-.5-.1-.8-1.3.2-2.8-.7-2.8-2.1 0-1.4 1.5-2.3 2.8-2.1 0-.3.1-.5.1-.8-2.1-.8-5.6.3-5.6 2.9zm8-19.5c-1.8 1.8-.1 5.1 1.9 6 .2-.2.3-.4.5-.6-1-.8-1.5-2.5-.5-3.5s2.7-.5 3.5.5c.2-.2.4-.3.6-.5-.9-1.9-4.2-3.7-6-1.9zm19.5-4c-.6 0-.8.9-.8 1.4h1.6c0-.5-.2-1.4-.8-1.4zm16.6 6.9c-.4-.4-1.2 0-1.5.5l.5.5.5.5c.4-.3.9-1.1.5-1.5zm6.9 16.6c0-.6-.9-.8-1.4-.8v1.6c.5 0 1.4-.2 1.4-.8zm-6.9 16.6c.4-.4 0-1.2-.5-1.5l-.5.5-.5.5c.3.4 1 .9 1.5.5zm-16.6 6.9c.6 0 .8-.9.8-1.4h-1.6c-.1.5.1 1.4.8 1.4zm-16.6-6.9c.4.4 1.2 0 1.5-.5l-.5-.5-.5-.5c-.5.3-1 1-.5 1.5zm-6.9-16.6c0 .6.9.8 1.4.8v-1.6c-.5-.1-1.4.1-1.4.8zm6.9-16.6c-.4.4 0 1.2.5 1.5l.5-.5.5-.5c-.3-.5-1.1-1-1.5-.5zm7.1-6.3c1.3-.5 2.6.5 3 1.8.3-.1.5-.2.8-.2-.1-2.2-2.5-5-4.8-4s-2 4.7-.6 6.3c.2-.1.5-.3.7-.4-.6-1.3-.4-3 .9-3.5zm19 0c1.3.5 1.5 2.2.9 3.4.2.1.5.3.7.4 1.5-1.6 1.7-5.3-.6-6.3-2.3-.9-4.7 1.9-4.8 4 .3.1.5.1.8.2.4-1.2 1.7-2.3 3-1.7zm13.4 13.4c.5 1.3-.5 2.6-1.8 3 .1.3.2.5.2.8 2.2-.1 5-2.5 4-4.8s-4.7-2-6.3-.6c.1.2.3.5.4.7 1.3-.6 3-.4 3.5.9zm0 19c-.5 1.3-2.2 1.5-3.4.9-.1.3-.3.5-.4.7 1.6 1.5 5.3 1.7 6.3-.6.9-2.3-1.9-4.7-4-4.8-.1.3-.1.5-.2.8 1.2.4 2.2 1.7 1.7 3zM59.4 72.8c-1.3.5-2.6-.5-3-1.8-.3.1-.5.2-.8.2.1 2.2 2.5 5 4.8 4s2-4.7.6-6.3c-.2.1-.5.3-.7.4.5 1.3.4 3-.9 3.5zm-19 0c-1.3-.5-1.5-2.2-.9-3.4-.2-.1-.5-.3-.7-.4-1.5 1.6-1.7 5.3.6 6.3 2.3.9 4.7-1.9 4.8-4-.3-.1-.5-.1-.8-.2-.4 1.2-1.7 2.2-3 1.7zM27 59.4c-.5-1.3.5-2.6 1.8-3-.1-.3-.2-.5-.2-.8-2.2.1-5 2.5-4 4.8s4.7 2 6.3.6c-.1-.2-.3-.5-.4-.7-1.3.5-3 .4-3.5-.9zm0-19c.5-1.3 2.2-1.5 3.4-.9.1-.3.3-.5.4-.7-1.6-1.5-5.3-1.7-6.3.6-.9 2.3 1.9 4.7 4 4.8.1-.3.1-.5.2-.8-1.2-.4-2.3-1.7-1.7-3zm14.4-11s.1 0 0 0c.3-.1.5-.2.7-.3-.1-.5-.7-1.2-1.2-1-.5.2-.4 1.1-.2 1.6.2-.1.4-.2.7-.3zm16.9 0c.1 0 .1 0 0 0 .3.1.5.2.7.3.2-.4.4-1.3-.2-1.6-.5-.2-1.1.5-1.2 1 .2.1.5.2.7.3zm12 12s.1.1 0 0c.1.3.2.5.3.7.5-.1 1.2-.7 1-1.2-.2-.5-1.1-.4-1.6-.2.1.2.2.4.3.7zm0 16.9c0 .1 0 .1 0 0-.1.3-.2.5-.3.7.4.2 1.3.4 1.6-.2.2-.5-.5-1.1-1-1.2-.1.2-.1.5-.3.7 0 0 .1 0 0 0zm-12 12s0 .1 0 0c-.3.1-.5.2-.7.3.1.5.7 1.2 1.2 1 .5-.2.4-1.1.2-1.6-.2.1-.4.2-.7.3.1 0 .1 0 0 0zm-16.9 0c-.3-.1-.5-.2-.7-.3-.2.4-.4 1.3.2 1.6.5.2 1.1-.5 1.2-1-.2-.1-.4-.2-.7-.3 0 0 .1.1 0 0zm-12-12c-.1-.3-.2-.5-.3-.7-.5.1-1.2.7-1 1.2.2.5 1.1.4 1.6.2-.1-.2-.2-.4-.3-.7 0 .1 0 .1 0 0zm0-16.9c.1-.3.2-.5.3-.7-.4-.2-1.3-.4-1.6.2-.2.5.5 1.1 1 1.2.1-.2.2-.4.3-.7 0 0 0 .1 0 0z" fill="#563431"/><path d="M42.1 31.2c2.5-1 5.1-1.5 7.7-1.5 2.6 0 5.2.5 7.7 1.5 2.5 1.1 4.7 2.6 6.5 4.4 1.8 1.8 3.4 4 4.4 6.5 1 2.5 1.5 5.1 1.5 7.7 0 2.6-.5 5.2-1.5 7.7-1.1 2.5-2.6 4.7-4.4 6.5-1.8 1.8-4 3.4-6.5 4.4-2.5 1-5.1 1.5-7.7 1.5-2.6 0-5.2-.5-7.7-1.5-2.5-1.1-4.7-2.6-6.5-4.4-1.8-1.8-3.4-4-4.4-6.5-1-2.5-1.5-5.1-1.5-7.7 0-2.6.5-5.2 1.5-7.7 1.1-2.5 2.6-4.7 4.4-6.5 1.9-1.8 4.1-3.3 6.5-4.4zm7.8.3c-2.3 0-4.7.4-7 1.3h-.2c-2.2 1-4.2 2.3-5.9 4-1.7 1.6-3 3.6-4 5.9v.2c-.9 2.3-1.3 4.6-1.3 7 0 2.3.4 4.7 1.3 7v.2c1 2.2 2.3 4.2 4 5.9 1.6 1.7 3.6 3 5.9 4h.2c2.3.9 4.6 1.3 7 1.3 2.3 0 4.7-.4 7-1.3h.2c2.2-1 4.2-2.3 5.9-4 1.7-1.6 3-3.6 4-5.9v-.2c.9-2.3 1.3-4.6 1.3-7 0-2.3-.4-4.7-1.3-7v-.2c-1-2.2-2.3-4.2-4-5.9-1.6-1.7-3.6-3-5.9-4h-.2c-2.3-.9-4.7-1.3-7-1.3z" fill="#EDAD66"/><path d="M42.8 32.9c.1 0 .1-.1 0 0 2.3-.9 4.7-1.4 7-1.4s4.7.4 7 1.3h.2c2.2 1 4.2 2.3 5.9 4 1.7 1.6 3 3.6 4 5.9v.2c.9 2.3 1.3 4.6 1.3 7 0 2.3-.4 4.7-1.3 7v.2c-1 2.2-2.3 4.2-4 5.9-1.6 1.7-3.6 3-5.9 4h-.2c-2.3.9-4.6 1.3-7 1.3-2.3 0-4.7-.4-7-1.3h-.2c-2.2-1-4.2-2.3-5.9-4-1.7-1.6-3-3.6-4-5.9v-.2c-.9-2.3-1.3-4.6-1.3-7 0-2.3.4-4.7 1.3-7v-.2c1-2.2 2.3-4.2 4-5.9 1.8-1.6 3.8-2.9 6.1-3.9zm7.1 2.8c-1.8 0-3.7.3-5.4 1-1.7.8-3.3 1.8-4.6 3.1-1.3 1.3-2.4 2.8-3.1 4.6-.7 1.8-1 3.6-1 5.4 0 1.8.3 3.7 1 5.4.8 1.7 1.8 3.3 3.1 4.6 1.3 1.3 2.8 2.4 4.6 3.1 1.8.7 3.6 1 5.4 1 1.8 0 3.7-.3 5.4-1 1.7-.8 3.3-1.8 4.6-3.1 1.3-1.3 2.4-2.8 3.1-4.6.7-1.8 1-3.6 1-5.4 0-1.8-.3-3.7-1-5.4-.8-1.7-1.8-3.3-3.1-4.6-1.3-1.3-2.8-2.4-4.6-3.1-1.7-.7-3.6-1-5.4-1zm0-2.9h-1c0 .5.1 1 .1 1.5h1.8c0-.5.1-1 .1-1.5h-1zm12 5l-.7-.7c-.4.4-.7.8-1 1.2.2.2.4.4.7.6.2.2.4.4.6.7.4-.4.8-.7 1.2-1l-.8-.8zm5 12.1v-1c-.5 0-1 .1-1.5.1v1.8c.5 0 1 .1 1.5.1v-1zm-5 12l.7-.7c-.4-.4-.8-.7-1.2-1-.2.2-.4.4-.6.7-.2.2-.4.4-.7.6.4.4.7.8 1 1.2.3-.3.6-.5.8-.8zm-12 5h1c0-.5-.1-1-.1-1.5H49c0 .5-.1 1-.1 1.5h1zm-12.1-5l.7.7c.4-.4.7-.8 1-1.2-.2-.2-.4-.4-.7-.6-.2-.2-.4-.4-.6-.7-.4.4-.8.7-1.2 1 .4.3.6.6.8.8zm-5-12v1c.5 0 1-.1 1.5-.1V49c-.5 0-1-.1-1.5-.1v1zm5-12.1l-.7.7c.4.4.8.7 1.2 1 .2-.2.4-.4.6-.7.2-.2.4-.4.7-.6-.4-.4-.7-.8-1-1.2-.3.4-.5.6-.8.8zm9.9-3.3c0-.5-.1-1-.1-1.5l-1.8.3c.2.5.3 1 .4 1.5.4-.1.9-.2 1.5-.3zm-10.2 6.1c-.4-.4-.8-.7-1.2-1-.4.5-.7 1-1.1 1.5.5.2.9.5 1.3.8.3-.5.6-.9 1-1.3zm-3 11.5c-.5 0-1 .1-1.5.1l.3 1.8c.5-.2 1-.3 1.5-.4l-.3-1.5zm6.1 10.2c-.4.4-.7.8-1 1.2.5.4 1 .7 1.5 1.1.2-.5.5-.9.8-1.3-.5-.4-.9-.7-1.3-1zm11.5 2.9c0 .5.1 1 .1 1.5l1.8-.3c-.2-.5-.3-1-.4-1.5-.5.2-1 .3-1.5.3zm10.2-6c.4.4.8.7 1.2 1 .4-.5.7-1 1.1-1.5-.5-.2-.9-.5-1.3-.8-.4.4-.7.8-1 1.3zm2.9-11.5c.5 0 1-.1 1.5-.1l-.3-1.8c-.5.2-1 .3-1.5.4.2.4.3.9.3 1.5zm-6-10.2c.4-.4.7-.8 1-1.2-.5-.4-1-.7-1.5-1.1-.2.5-.5.9-.8 1.3.4.3.8.6 1.3 1zm-5.6-2.7c.1-.5.2-1 .4-1.5-.6-.1-1.2-.3-1.8-.3 0 .5-.1 1-.1 1.5l1.5.3zm-11.7 1.8c-.3-.4-.6-.9-.8-1.3-.5.3-1 .7-1.5 1.1.4.4.6.8 1 1.2.4-.5.8-.8 1.3-1zm-7.1 9.5c-.5-.1-1-.2-1.5-.4-.1.6-.3 1.2-.3 1.8.5 0 1 .1 1.5.1l.3-1.5zm1.8 11.8c-.4.3-.9.6-1.3.8.3.5.7 1 1.1 1.5.4-.4.8-.6 1.2-1-.5-.5-.8-.9-1-1.3zm9.5 7c-.1.5-.2 1-.4 1.5.6.1 1.2.3 1.8.3 0-.5.1-1 .1-1.5-.5 0-1-.1-1.5-.3zm11.8-1.7c.3.4.6.9.8 1.3.5-.3 1-.7 1.5-1.1-.4-.4-.6-.8-1-1.2-.5.4-.9.7-1.3 1zm7-9.6c.5.1 1 .2 1.5.4.1-.6.3-1.2.3-1.8-.5 0-1-.1-1.5-.1 0 .5-.1 1-.3 1.5zm-1.7-11.7c.4-.3.9-.6 1.3-.8-.3-.5-.7-1-1.1-1.5-.4.4-.8.6-1.2 1 .4.4.7.8 1 1.3zm-19.3-6.4c.1 0 .1 0 0 0 .4-.2.6-.3.9-.3-.1-.5-.2-1-.4-1.5-.4.1-.8.3-1.1.4-.4.2-.7.3-1.1.5.2.5.5.9.8 1.3.3-.1.6-.2.9-.4zm11.9 0s.1 0 0 0c.4.1.6.3.9.4.3-.4.6-.9.8-1.3-.4-.2-.7-.4-1.1-.5-.4-.1-.7-.3-1.1-.4-.2.5-.3 1-.4 1.5l.9.3zm8.4 8.4c0 .1 0 .1 0 0 .2.4.3.6.3.9.5-.1 1-.2 1.5-.4-.1-.4-.3-.8-.4-1.1-.2-.4-.3-.7-.5-1.1-.5.2-.9.5-1.3.8.1.3.3.6.4.9zm0 11.9s0 .1 0 0c-.1.4-.3.6-.4.9.4.3.9.6 1.3.8.2-.4.4-.7.5-1.1.1-.4.3-.7.4-1.1-.5-.2-1-.3-1.5-.4 0 .3-.1.6-.3.9zm-8.4 8.4c-.4.2-.6.3-.9.3.1.5.2 1 .4 1.5.4-.1.8-.3 1.1-.4.4-.2.7-.3 1.1-.5-.2-.5-.5-.9-.8-1.3-.3.1-.5.3-.9.4 0 0 .1 0 0 0zm-11.9 0c-.4-.1-.6-.3-.9-.4-.3.4-.6.9-.8 1.3.4.2.7.4 1.1.5.4.1.7.3 1.1.4.2-.5.3-1 .4-1.5-.2 0-.5-.1-.9-.3.1 0 .1 0 0 0zm-8.4-8.4c-.2-.4-.3-.6-.3-.9-.5.1-1 .2-1.5.4.1.4.3.8.4 1.1.2.4.3.7.5 1.1.5-.2.9-.5 1.3-.8-.1-.3-.2-.5-.4-.9 0 0 0 .1 0 0zm0-11.9c.1-.4.3-.6.4-.9-.4-.3-.9-.6-1.3-.8-.2.4-.4.7-.5 1.1-.1.4-.3.7-.4 1.1.5.2 1 .3 1.5.4.1-.2.2-.5.3-.9 0 .1 0 .1 0 0z" fill="#563431"/><path d="M44.4 36.7c1.8-.7 3.6-1 5.4-1 1.8 0 3.7.3 5.4 1 1.7.8 3.3 1.8 4.6 3.1 1.3 1.3 2.4 2.8 3.1 4.6.7 1.8 1 3.6 1 5.4 0 1.8-.3 3.7-1 5.4-.8 1.7-1.8 3.3-3.1 4.6-1.3 1.3-2.8 2.4-4.6 3.1-1.8.7-3.6 1-5.4 1-1.8 0-3.7-.3-5.4-1-1.7-.8-3.3-1.8-4.6-3.1-1.3-1.3-2.4-2.8-3.1-4.6-.7-1.8-1-3.6-1-5.4 0-1.8.3-3.7 1-5.4.8-1.7 1.8-3.3 3.1-4.6 1.3-1.2 2.9-2.3 4.6-3.1zm5.5.7c-1.6 0-3.2.3-4.7.9H45c-1.5.7-2.8 1.6-3.9 2.7s-2 2.4-2.7 3.9v.2c-.6 1.5-.9 3.1-.9 4.7s.3 3.2.9 4.7v.2c.7 1.5 1.6 2.8 2.7 3.9s2.4 2 3.9 2.7h.2c1.5.6 3.1.9 4.7.9s3.2-.3 4.7-.9h.2c1.5-.7 2.8-1.6 3.9-2.7s2-2.4 2.7-3.9v-.2c.6-1.5.9-3.1.9-4.7s-.3-3.2-.9-4.7v-.2c-.7-1.5-1.6-2.8-2.7-3.9s-2.4-2-3.9-2.7h-.2c-1.5-.6-3.1-.9-4.7-.9z" fill="#EDAD66"/><path d="M45.1 38.3c1.6-.6 3.2-.9 4.8-.9 1.6 0 3.2.3 4.7.9h.2c1.5.7 2.8 1.6 3.9 2.7s2 2.4 2.7 3.9v.2c.6 1.5.9 3.1.9 4.7s-.3 3.2-.9 4.7v.2c-.7 1.5-1.6 2.8-2.7 3.9s-2.4 2-3.9 2.7h-.2c-1.5.6-3.1.9-4.7.9s-3.2-.3-4.7-.9H45c-1.5-.7-2.8-1.6-3.9-2.7s-2-2.4-2.7-3.9v-.2c-.6-1.5-.9-3.1-.9-4.7s.3-3.2.9-4.7v-.2c.7-1.5 1.6-2.8 2.7-3.9s2.4-2 4-2.7c0 0-.1 0 0 0zm4.8.5c-1 0-2 .1-2.9.3.1.1.2.3.3.4.3.7-.1 1.6-.8 1.9h-.2c-.7.3-1.6 0-1.9-.8-.1-.2-.1-.3-.1-.5-.9.5-1.6 1.1-2.3 1.8-.7.7-1.3 1.5-1.8 2.3.2 0 .3 0 .5.1.7.3 1.1 1.2.8 1.9v.2c-.3.7-1.2 1.1-1.9.8-.1-.1-.3-.2-.4-.3-.2 1-.4 1.9-.3 2.9 0 1 .1 2 .3 2.9.1-.1.3-.2.4-.3.7-.3 1.6.1 1.9.8v.2c.3.7 0 1.6-.8 1.9-.2.1-.3.1-.5.1.5.9 1.1 1.6 1.8 2.3.7.7 1.5 1.3 2.3 1.8 0-.2 0-.3.1-.5.3-.7 1.2-1.1 1.9-.8h.2c.7.3 1.1 1.2.8 1.9-.1.1-.2.3-.3.4 1 .2 1.9.4 2.9.3 1 0 2-.1 2.9-.3-.1-.1-.2-.3-.3-.4-.3-.7.1-1.6.8-1.9h.2c.7-.3 1.6 0 1.9.8.1.2.1.3.1.5.9-.5 1.6-1.1 2.3-1.8.7-.7 1.3-1.5 1.8-2.3-.2 0-.3 0-.5-.1-.7-.3-1.1-1.2-.8-1.9v-.2c.3-.7 1.2-1.1 1.9-.8.1.1.3.2.4.3.2-1 .4-1.9.3-2.9 0-1-.1-2-.3-2.9-.1.1-.2.2-.4.3-.7.3-1.6-.1-1.9-.8v-.2c-.3-.7 0-1.6.8-1.9.2-.1.3-.1.5-.1-.5-.9-1.1-1.6-1.8-2.3-.7-.7-1.5-1.3-2.3-1.8 0 .2 0 .3-.1.5-.3.7-1.2 1.1-1.9.8h-.2c-.7-.3-1.1-1.2-.8-1.9.1-.1.2-.3.3-.4-1-.2-2-.4-2.9-.3z" fill="#563431"/><path d="M49.9 20c-2.6 0-4.6 2-5.1 4.3-1.2-1.7-3.2-2.8-5.3-2.4-2-3.7 0-7.9 2.6-10.7 2.5-2.7 5.4-5 7.7-7.9 2.4 2.8 5.2 5.1 7.7 7.9 2.6 2.8 4.7 7 2.6 10.7-2.1-.4-4.1.7-5.3 2.4-.3-2.3-2.3-4.3-4.9-4.3zM71 28.8c-1.9-1.9-4.6-1.8-6.7-.5.4-2-.3-4.2-2.1-5.4 1.2-4 5.6-5.5 9.4-5.7 3.7-.2 7.3.2 11-.1-.3 3.7.1 7.3-.1 11-.2 3.9-1.7 8.3-5.7 9.4-1.2-1.8-3.4-2.4-5.4-2.1 1.4-2 1.4-4.8-.4-6.6zm8.7 21.1c0-2.6-2-4.6-4.3-5.1 1.7-1.2 2.8-3.2 2.4-5.3 3.7-2 7.9 0 10.7 2.6 2.7 2.5 5 5.4 7.9 7.7-2.8 2.4-5.1 5.2-7.9 7.7-2.8 2.6-7 4.7-10.7 2.6.4-2.1-.7-4.1-2.4-5.3 2.3-.3 4.3-2.3 4.3-4.9zM71 71c1.9-1.9 1.8-4.6.5-6.7 2 .4 4.2-.3 5.4-2.1 4 1.2 5.5 5.6 5.7 9.4.2 3.7-.2 7.3.1 11-3.7-.3-7.3.1-11-.1-3.9-.2-8.3-1.7-9.4-5.7 1.8-1.2 2.4-3.4 2.1-5.4 1.9 1.4 4.7 1.4 6.6-.4zm-21.1 8.7c2.6 0 4.6-2 5.1-4.3 1.2 1.7 3.2 2.8 5.3 2.4 2 3.7 0 7.9-2.6 10.7-2.5 2.7-5.4 5-7.7 7.9-2.4-2.8-5.2-5.1-7.7-7.9-2.6-2.8-4.7-7-2.6-10.7 2.1.4 4.1-.7 5.3-2.4.3 2.3 2.3 4.3 4.9 4.3zM28.8 71c1.9 1.9 4.6 1.8 6.7.5-.4 2 .3 4.2 2.1 5.4-1.2 4-5.6 5.5-9.4 5.7-3.7.2-7.3-.2-11 .1.3-3.7-.1-7.3.1-11 .2-3.9 1.7-8.3 5.7-9.4 1.2 1.7 3.4 2.4 5.4 2.1-1.5 1.9-1.5 4.7.4 6.6zM20 49.9c0 2.6 2 4.6 4.3 5.1-1.7 1.2-2.8 3.2-2.4 5.3-3.7 2-7.9 0-10.7-2.6-2.7-2.5-5-5.4-7.9-7.7 2.8-2.4 5.1-5.2 7.9-7.7 2.8-2.6 7-4.7 10.7-2.6-.4 2.1.7 4.1 2.4 5.3-2.3.3-4.3 2.3-4.3 4.9zm8.8-21.1c-1.9 1.9-1.8 4.6-.5 6.7-2-.4-4.2.3-5.4 2.1-4-1.2-5.5-5.6-5.7-9.4-.2-3.7.2-7.3-.1-11 3.7.3 7.3-.1 11 .1 3.9.2 8.3 1.7 9.4 5.7-1.8 1.2-2.4 3.4-2.1 5.4-2-1.5-4.8-1.5-6.6.4zm21.1-13.6h-.2c-.8.1-1.4.8-1.3 1.7.1.8.7 1.5 1.5 1.5s1.4-.7 1.5-1.5c.1-.8-.5-1.5-1.3-1.7h-.2zm24.5 10.1l-.1-.1c-.6-.5-1.6-.4-2.1.2-.5.6-.6 1.5 0 2.1.6.6 1.5.5 2.1 0 .6-.5.7-1.5.2-2.1 0 0-.1 0-.1-.1zm10.2 24.6v-.2c-.1-.8-.8-1.4-1.7-1.3-.8.1-1.5.7-1.5 1.5s.7 1.4 1.5 1.5c.8.1 1.5-.5 1.7-1.3v-.2zM74.4 74.4l.1-.1c.5-.7.4-1.6-.2-2.1-.6-.5-1.5-.6-2.1 0-.6.6-.5 1.5 0 2.1.5.6 1.5.7 2.1.2l.1-.1zM49.9 84.6h.2c.8-.1 1.4-.8 1.3-1.7-.1-.8-.7-1.5-1.5-1.5s-1.4.7-1.5 1.5c-.1.8.5 1.5 1.3 1.7h.2zM25.3 74.4l.1.1c.6.5 1.6.4 2.1-.2.5-.6.6-1.5 0-2.1-.6-.6-1.5-.5-2.1 0-.6.5-.7 1.5-.2 2.1.1 0 .1.1.1.1zM15.2 49.9v.2c.1.8.8 1.4 1.7 1.3.8-.1 1.5-.7 1.5-1.5s-.7-1.4-1.5-1.5c-.8-.1-1.5.5-1.7 1.3v.2zm10.1-24.6l-.1.1c-.5.7-.4 1.6.2 2.1.6.5 1.5.6 2.1 0 .6-.6.5-1.5 0-2.1-.5-.6-1.5-.7-2.1-.2 0 .1 0 .1-.1.1zM45.8 19c.1-.8-.5-1.6-1.3-1.7h-.4c-.8.1-1.4.8-1.3 1.7.1.8.7 1.5 1.5 1.5.7-.1 1.4-.7 1.5-1.5zM25.1 31c-.5-.6-1.5-.8-2.1-.3l-.1.1-.1.1c-.5.7-.4 1.6.2 2.1.6.5 1.5.6 2.1 0 .5-.5.5-1.5 0-2zM19 54c-.8-.1-1.6.5-1.7 1.3v.4c.1.8.8 1.4 1.7 1.3.8-.1 1.5-.7 1.5-1.5-.1-.8-.7-1.4-1.5-1.5zm12 20.6c-.6.5-.8 1.5-.3 2.1l.1.1.1.1c.7.5 1.6.4 2.1-.2.5-.6.6-1.5 0-2.1-.5-.5-1.5-.5-2 0zm23 6.1c-.1.8.5 1.6 1.3 1.7h.4c.8-.1 1.4-.8 1.3-1.7-.1-.8-.7-1.5-1.5-1.5-.8.1-1.4.8-1.5 1.5zm20.6-11.9c.5.6 1.5.8 2.1.3l.1-.1.1-.1c.5-.7.4-1.6-.2-2.1-.6-.5-1.5-.6-2.1 0-.5.5-.5 1.4 0 2zm6.1-23c.8.1 1.6-.5 1.7-1.3v-.4c-.1-.8-.8-1.4-1.7-1.3-.8.1-1.5.7-1.5 1.5.1.7.8 1.4 1.5 1.5zM68.8 25.1c.6-.5.8-1.5.3-2.1l-.1-.1-.1-.1c-.6-.5-1.6-.4-2.1.2-.5.6-.6 1.5 0 2.1.5.5 1.4.5 2 0zm-13.3-4.7c.8 0 1.4-.7 1.5-1.5.1-.8-.5-1.5-1.3-1.7h-.4c-.8.1-1.4.9-1.3 1.7.1.9.7 1.5 1.5 1.5zM33 25.1c.6-.6.5-1.5 0-2.1-.5-.6-1.5-.7-2.1-.2l-.1.1-.1.1c-.5.7-.4 1.6.3 2.1.5.5 1.5.5 2 0zM20.4 44.3c0-.8-.7-1.4-1.5-1.5-.8-.1-1.5.5-1.7 1.3v.4c.1.8.9 1.4 1.7 1.3.9-.1 1.5-.8 1.5-1.5zm4.7 22.4c-.6-.6-1.5-.5-2.1 0-.6.5-.7 1.5-.2 2.1l.1.1.1.1c.7.5 1.6.4 2.1-.3.5-.5.5-1.4 0-2zm19.2 12.6c-.8 0-1.4.7-1.5 1.5-.1.8.5 1.5 1.3 1.7h.4c.8-.1 1.4-.9 1.3-1.7-.1-.8-.8-1.5-1.5-1.5zm22.4-4.6c-.6.6-.5 1.5 0 2.1.5.6 1.5.7 2.1.2l.1-.1.1-.1c.5-.7.4-1.6-.3-2.1-.5-.6-1.4-.6-2 0zm12.6-19.2c0 .8.7 1.4 1.5 1.5.8.1 1.5-.5 1.7-1.3v-.4c-.1-.8-.9-1.4-1.7-1.3-.8.1-1.5.7-1.5 1.5zM74.7 33c.6.6 1.5.5 2.1 0 .6-.5.7-1.5.2-2.1l-.1-.1-.1-.1c-.7-.5-1.6-.4-2.1.3-.6.5-.6 1.5 0 2z" fill="#FC6636"/><path d="M46.9 42.6c.1-.3.3-.6.5-.9.6-.6 1.5-.7 1.8-1.6.1-.3.4-.5.6-.5.3 0 .5.2.6.5.3.9 1.2 1 1.8 1.6.3.3.4.6.5.9.3-.2.6-.2 1-.2.9 0 1.6.5 2.4.2.3-.1.6-.1.8.1.2.2.3.5.1.8-.4.9.2 1.6.2 2.4 0 .4-.1.7-.2 1 .3.1.6.3.9.5.6.6.7 1.5 1.6 1.8.3.1.5.4.5.6 0 .3-.2.5-.5.6-.9.3-1 1.2-1.6 1.8-.3.3-.6.4-.9.5.2.3.2.6.2 1 0 .9-.5 1.6-.2 2.4.1.3.1.6-.1.8-.2.2-.5.3-.8.1-.9-.4-1.6.2-2.4.2-.4 0-.7-.1-1-.2-.1.3-.3.6-.5.9-.6.6-1.5.7-1.8 1.6-.1.3-.4.5-.6.5-.3 0-.5-.2-.6-.5-.3-.9-1.2-1-1.8-1.6-.3-.3-.4-.6-.5-.9-.3.2-.6.2-1 .2-.9 0-1.6-.5-2.4-.2-.3.1-.6.1-.8-.1-.2-.2-.3-.5-.1-.8.4-.9-.2-1.6-.2-2.4 0-.4.1-.7.2-1-.3-.1-.6-.3-.9-.5-.6-.6-.7-1.5-1.6-1.8-.3-.1-.5-.4-.5-.6 0-.3.2-.5.5-.6.9-.3 1-1.2 1.6-1.8.3-.3.6-.4.9-.5-.2-.3-.2-.6-.2-1 0-.9.5-1.6.2-2.4-.1-.3-.1-.6.1-.8.2-.2.5-.3.8-.1.9.4 1.6-.2 2.4-.2.3 0 .7.1 1 .2zm3 .5c-.7 0-1.5.4-1.9 1.1l-.3.3c-.1.1-.3.1-.4 0-.8-.2-1.6 0-2.1.5s-.8 1.3-.5 2.1v.4c0 .1-.1.2-.3.3-.8.4-1.1 1.2-1.1 1.9s.4 1.5 1.1 1.9l.3.3c.1.1.1.3 0 .4-.2.8 0 1.6.5 2.1s1.3.8 2.1.5h.4c.1 0 .2.1.3.3.4.8 1.2 1.1 1.9 1.1s1.5-.4 1.9-1.1l.3-.3c.1-.1.3-.1.4 0 .8.2 1.6 0 2.1-.5s.8-1.3.5-2.1v-.4c0-.1.1-.2.3-.3.8-.4 1.1-1.2 1.1-1.9s-.4-1.5-1.1-1.9l-.3-.3c-.1-.1-.1-.3 0-.4.2-.8 0-1.6-.5-2.1s-1.3-.8-2.1-.5h-.4c-.1 0-.2-.1-.3-.3-.4-.7-1.2-1.1-1.9-1.1z" fill="#563431"/><path d="M49.9 39.6c-.3 0-.5.2-.6.5-.3.9-1.2 1-1.8 1.6-.3.3-.4.6-.5.9-.3-.2-.6-.2-1-.2-.9 0-1.6.5-2.4.2-.3-.1-.6-.1-.8.1-.2.2-.3.5-.1.8.4.9-.2 1.6-.2 2.4 0 .4.1.7.2 1-.3.1-.6.3-.9.5-.6.6-.7 1.5-1.6 1.8-.3.1-.5.4-.5.6 0 .3.2.5.5.6.9.3 1 1.2 1.6 1.8.3.3.6.4.9.5-.2.3-.2.6-.2 1 0 .9.5 1.6.2 2.4-.1.3-.1.6.1.8.2.2.5.3.8.1.9-.4 1.6.2 2.4.2.4 0 .7-.1 1-.2.1.3.3.6.5.9.6.6 1.5.7 1.8 1.6.1.3.4.5.6.5.3 0 .5-.2.6-.5.3-.9 1.2-1 1.8-1.6.3-.3.4-.6.5-.9.3.2.6.2 1 .2.9 0 1.6-.5 2.4-.2.3.1.6.1.8-.1.2-.2.3-.5.1-.8-.4-.9.2-1.6.2-2.4 0-.4-.1-.7-.2-1 .3-.1.6-.3.9-.5.6-.6.7-1.5 1.6-1.8.3-.1.5-.4.5-.6 0-.3-.2-.5-.5-.6-.9-.3-1-1.2-1.6-1.8-.3-.3-.6-.4-.9-.5.2-.3.2-.6.2-1 0-.9-.5-1.6-.2-2.4.1-.3.1-.6-.1-.8-.2-.2-.5-.3-.8-.1-.9.4-1.6-.2-2.4-.2-.4 0-.7.1-1 .2-.1-.3-.3-.6-.5-.9-.6-.6-1.5-.7-1.8-1.6-.1-.3-.4-.5-.6-.5zm-3.5 1.8c.8-.3 1.2-1.2.9-1.9-.1-.1-.2-.3-.3-.4 1-.2 1.9-.4 2.9-.3 1 0 2 .1 2.9.3-.1.1-.2.3-.3.4-.3.7.1 1.6.8 1.9h.2c.7.3 1.6 0 1.9-.8.1-.2.1-.3.1-.5.9.5 1.6 1.1 2.3 1.8.7.7 1.3 1.5 1.8 2.3-.2 0-.3 0-.5.1-.7.3-1.1 1.2-.8 1.9v.2c.3.7 1.2 1.1 1.9.8.1-.1.3-.2.4-.3.2 1 .4 1.9.3 2.9 0 1-.1 2-.3 2.9-.1-.1-.2-.2-.4-.3-.7-.3-1.6.1-1.9.8v.2c-.3.7 0 1.6.8 1.9.2.1.3.1.5.1-.5.9-1.1 1.6-1.8 2.3-.7.7-1.5 1.3-2.3 1.8 0-.2 0-.3-.1-.5-.3-.7-1.2-1.1-1.9-.8h-.2c-.7.3-1.1 1.2-.8 1.9.1.1.2.3.3.4-1 .2-1.9.4-2.9.3-1 0-2-.1-2.9-.3.1-.1.2-.3.3-.4.3-.7-.1-1.6-.8-1.9h-.2c-.7-.3-1.6 0-1.9.8-.1.2-.1.3-.1.5-.9-.5-1.6-1.1-2.3-1.8-.7-.7-1.3-1.5-1.8-2.3.2 0 .3 0 .5-.1.7-.3 1.1-1.2.8-1.9v-.2c-.3-.7-1.2-1.1-1.9-.8-.1.1-.3.2-.4.3-.2-1-.4-1.9-.3-2.9 0-1 .1-2 .3-2.9.1.1.3.2.4.3.7.3 1.6-.1 1.9-.8v-.2c.3-.7 0-1.6-.8-1.9-.2-.1-.3-.1-.5-.1.5-.9 1.1-1.6 1.8-2.3.7-.7 1.5-1.3 2.3-1.8 0 .2 0 .3.1.5.3.8 1.2 1.1 2 .8-.1 0-.1 0 0 0z" fill="#F9EEE5"/><path d="M47.7 44.5c.1 0 .2-.1.3-.3.4-.8 1.2-1.1 1.9-1.1s1.5.4 1.9 1.1l.3.3c.1.1.3.1.4 0 .8-.2 1.6 0 2.1.5s.8 1.3.5 2.1v.4c0 .1.1.2.3.3.8.4 1.1 1.2 1.1 1.9s-.4 1.5-1.1 1.9l-.3.3c-.1.1-.1.3 0 .4.2.8 0 1.6-.5 2.1s-1.3.8-2.1.5h-.4c-.1 0-.2.1-.3.3-.4.8-1.2 1.1-1.9 1.1s-1.5-.4-1.9-1.1l-.3-.3c-.1-.1-.3-.1-.4 0-.8.2-1.6 0-2.1-.5s-.8-1.3-.5-2.1v-.4c0-.1-.1-.2-.3-.3-.8-.4-1.1-1.2-1.1-1.9s.4-1.5 1.1-1.9l.3-.3c.1-.1.1-.3 0-.4-.2-.8 0-1.6.5-2.1s1.3-.8 2.1-.5c.1.1.2.1.4 0zm2.2-.3c-.7 0-1.3.5-1.3 1.2 0 .2 0 .4.1.6-.1 0-.3.1-.4.1-.1.1-.3.1-.4.2-.1-.2-.2-.4-.3-.5-.5-.5-1.3-.4-1.7.1-.5.5-.5 1.2-.1 1.7.1.2.3.3.5.3-.1.1-.1.3-.2.4-.1.1-.1.3-.1.4-.2-.1-.4-.1-.6-.1-.7 0-1.2.6-1.2 1.3 0 .7.5 1.3 1.2 1.3.2 0 .4 0 .6-.1 0 .1.1.3.1.4.1.1.1.3.2.4-.2.1-.4.2-.5.3-.5.5-.4 1.3.1 1.7.5.5 1.2.5 1.7.1.2-.1.3-.3.3-.5.1.1.3.1.4.2.1.1.3.1.4.1-.1.2-.1.4-.1.6 0 .7.6 1.2 1.3 1.2.7 0 1.3-.5 1.3-1.2 0-.2 0-.4-.1-.6.1 0 .3-.1.4-.1.1-.1.3-.1.4-.2.1.2.2.4.3.5.5.5 1.3.4 1.7-.1.5-.5.5-1.2.1-1.7-.1-.2-.3-.3-.5-.3.1-.1.1-.3.2-.4.1-.1.1-.3.1-.4.2.1.4.1.6.1.7 0 1.2-.6 1.2-1.3 0-.7-.5-1.3-1.2-1.3-.2 0-.4 0-.6.1 0-.1-.1-.3-.1-.4-.1-.1-.1-.3-.2-.4.2-.1.4-.2.5-.3.5-.5.4-1.3-.1-1.7-.5-.5-1.2-.5-1.7-.1-.2.1-.3.3-.3.5-.1-.1-.3-.1-.4-.2-.2 0-.3-.1-.5-.1.1-.2.1-.4.1-.6 0-.7-.6-1.2-1.2-1.2z" fill="#05A49D"/><path d="M48.3 46.1c.1-.1.3-.1.4-.1-.1-.2-.1-.4-.1-.6 0-.7.6-1.2 1.3-1.2.7 0 1.3.5 1.3 1.2 0 .2 0 .4-.1.6.1 0 .3.1.4.1.1.1.3.1.4.2.1-.2.2-.4.3-.5.5-.5 1.3-.4 1.7.1.5.5.5 1.2.1 1.7-.1.2-.3.3-.5.3.1.1.1.3.2.4.1.1.1.3.1.4.2-.1.4-.1.6-.1.7 0 1.2.6 1.2 1.3 0 .7-.5 1.3-1.2 1.3-.2 0-.4 0-.6-.1 0 .1-.1.3-.1.4-.1.1-.1.3-.2.4.2.1.4.2.5.3.5.5.4 1.3-.1 1.7-.5.5-1.2.5-1.7.1-.2-.1-.3-.3-.3-.5-.1.1-.3.1-.4.2-.1.1-.3.1-.4.1.1.2.1.4.1.6 0 .7-.6 1.2-1.3 1.2-.7 0-1.3-.5-1.3-1.2 0-.2 0-.4.1-.6-.1 0-.3-.1-.4-.1-.1-.1-.3-.1-.4-.2-.1.2-.2.4-.3.5-.5.5-1.3.4-1.7-.1-.5-.5-.5-1.2-.1-1.7.1-.2.3-.3.5-.3-.1-.1-.1-.3-.2-.4 0-.2-.1-.3-.1-.5-.2.1-.4.1-.6.1-.7 0-1.2-.6-1.2-1.3 0-.7.5-1.3 1.2-1.3.2 0 .4 0 .6.1 0-.1.1-.3.1-.4.1-.1.1-.3.2-.4-.2-.1-.4-.2-.5-.3-.5-.5-.4-1.3.1-1.7.5-.5 1.2-.5 1.7-.1.2.1.3.3.3.5.2 0 .3 0 .4-.1zm1.6 1c-.4 0-.7.1-1.1.3-.3.1-.6.3-.9.5-.3.3-.4.6-.5.9-.1.3-.2.7-.3 1.1 0 .4.1.7.3 1.1.1.3.3.6.5.9.3.3.6.4.9.5.3.1.7.2 1.1.3.4 0 .7-.1 1.1-.3.3-.1.6-.3.9-.5.3-.3.4-.6.5-.9.1-.3.2-.7.3-1.1 0-.4-.1-.7-.3-1.1-.1-.3-.3-.6-.5-.9-.3-.3-.6-.4-.9-.5-.4-.2-.7-.3-1.1-.3z" fill="#563431"/><path d="M49.9 25.1c-1.4 0-2.3 1.5-2.1 2.8-.3 0-.5.1-.8.1-.7-2.1.4-5.6 2.9-5.6s3.6 3.5 2.9 5.6c-.3 0-.5-.1-.8-.1.1-1.3-.7-2.8-2.1-2.8zm17.5 7.2c-1-1-2.7-.5-3.5.5-.2-.2-.4-.3-.6-.5 1-2 4.2-3.7 6-1.9 1.8 1.8.1 5.1-1.9 6-.2-.2-.3-.4-.5-.6 1-.8 1.5-2.5.5-3.5zm7.3 17.6c0-1.4-1.5-2.3-2.8-2.1 0-.3-.1-.5-.1-.8 2.1-.7 5.6.4 5.6 2.9s-3.5 3.6-5.6 2.9c0-.3.1-.5.1-.8 1.3.1 2.8-.7 2.8-2.1zm-7.3 17.5c1-1 .5-2.7-.5-3.5.2-.2.3-.4.5-.6 2 1 3.7 4.2 1.9 6-1.8 1.8-5.1.1-6-1.9.2-.2.4-.3.6-.5.8 1 2.5 1.5 3.5.5zm-17.5 7.3c1.4 0 2.3-1.5 2.1-2.8.3 0 .5-.1.8-.1.7 2.1-.4 5.6-2.9 5.6s-3.6-3.5-2.9-5.6c.3 0 .5.1.8.1-.2 1.3.7 2.8 2.1 2.8zm-17.6-7.3c1 1 2.7.5 3.5-.5.2.2.4.3.6.5-1 2-4.2 3.7-6 1.9-1.8-1.8-.1-5.1 1.9-6 .2.2.3.4.5.6-1 .8-1.4 2.5-.5 3.5zm-7.2-17.5c0 1.4 1.5 2.3 2.8 2.1 0 .3.1.5.1.8-2.1.7-5.6-.4-5.6-2.9s3.5-3.6 5.6-2.9c0 .3-.1.5-.1.8-1.3-.2-2.8.7-2.8 2.1zm7.2-17.6c-1 1-.5 2.7.5 3.5-.2.2-.3.4-.5.6-2-1-3.7-4.2-1.9-6 1.8-1.8 5.1-.1 6 1.9-.2.2-.4.3-.6.5-.8-1-2.5-1.4-3.5-.5z" fill="#05A49D"/><path d="M48.8 47.3c.3-.1.7-.2 1.1-.3.4 0 .7.1 1.1.3.3.1.6.3.9.5.3.3.4.6.5.9.1.3.2.7.3 1.1 0 .4-.1.7-.3 1.1-.1.3-.3.6-.5.9-.3.3-.6.4-.9.5-.3.1-.7.2-1.1.3-.4 0-.7-.1-1.1-.3-.3-.1-.6-.3-.9-.5-.3-.3-.4-.6-.5-.9-.1-.3-.2-.7-.3-1.1 0-.4.1-.7.3-1.1.1-.3.3-.6.5-.9.3-.2.6-.4.9-.5zm1.1 1.4h-.4c-.1.1-.2.1-.3.2-.1.1-.2.2-.2.3v.8c.1.1.1.2.2.3.1.1.2.2.3.2h.8c.1-.1.2-.1.3-.2.1-.1.2-.2.2-.3v-.8c-.1-.1-.1-.2-.2-.3-.1-.1-.2-.2-.3-.2h-.4z" fill="#F9EEE5"/><path d="M49.9 18.3c-.8 0-1.4-.7-1.5-1.5-.1-.8.5-1.5 1.3-1.7h.4c.8.1 1.4.8 1.3 1.7-.1.8-.7 1.5-1.5 1.5zm22.3 9.3c-.6-.6-.5-1.5 0-2.1.5-.6 1.5-.7 2.1-.2l.1.1.1.1c.5.7.4 1.6-.2 2.1-.6.5-1.6.5-2.1 0zm9.2 22.3c0-.8.7-1.4 1.5-1.5.8-.1 1.5.5 1.7 1.3v.4c-.1.8-.8 1.4-1.7 1.3-.8-.1-1.5-.7-1.5-1.5zm-9.2 22.3c.6-.6 1.5-.5 2.1 0 .6.5.7 1.5.2 2.1l-.1.1-.1.1c-.6.5-1.6.4-2.1-.2-.5-.6-.6-1.6 0-2.1zm-22.3 9.2c.8 0 1.4.7 1.5 1.5.1.8-.5 1.5-1.3 1.7h-.4c-.8-.1-1.4-.8-1.3-1.7 0-.8.7-1.5 1.5-1.5zm-22.3-9.2c.6.6.5 1.5 0 2.1-.5.6-1.5.7-2.1.2l-.1-.1-.1-.1c-.5-.7-.4-1.6.2-2.1.5-.5 1.5-.6 2.1 0zm-9.3-22.3c0 .8-.7 1.4-1.5 1.5-.8.1-1.5-.5-1.7-1.3v-.4c.1-.8.8-1.4 1.7-1.3.8 0 1.5.7 1.5 1.5zm9.3-22.3c-.6.6-1.5.5-2.1 0-.6-.5-.7-1.5-.2-2.1l.1-.1.1-.1c.6-.5 1.6-.4 2.1.2.5.5.5 1.5 0 2.1zm21.8 21.2c0-.1.1-.1 0 0 .1-.1.1-.1 0 0 .2-.1.3-.1.5-.1h.4c.1.1.2.1.3.2.1.1.2.2.2.3v.8c-.1.1-.1.2-.2.3-.1.1-.2.2-.3.2h-.8c-.1-.1-.2-.1-.3-.2-.1-.1-.2-.2-.2-.3v-.8c.1-.1.1-.2.2-.3-.1 0 0 0 .2-.1 0 0-.1 0 0 0zm.6.9s0 .1 0 0c0 .1 0 .1 0 0 0 .1 0 .1 0 0zm.1.2s-.1 0 0 0c-.1 0 0 0 0 0zm-.2.2s0-.1 0 0c0-.1 0 0 0 0zm-.2-.1c.1 0 .1 0 0 0 .1 0 .1 0 0 0 0 0 .1 0 0 0zm0-.3c0 .1 0 .1 0 0 0 .1.1.1 0 0 .1 0 .1.1 0 0 .1 0 .1 0 0 0z" fill="#563431"/><path d="M49.9 34.4H49c0-.5-.1-1-.1-1.5h2c0 .5-.1 1-.1 1.5h-.9zm10.9 4.5c-.2-.2-.4-.4-.7-.6.4-.4.7-.8 1-1.2.3.2.5.5.7.7l.7.7c-.4.4-.8.7-1.2 1 0-.2-.3-.4-.5-.6zm4.6 11V49c.5 0 1-.1 1.5-.1v2c-.5 0-1-.1-1.5-.1v-.9zm-4.6 10.9c.2-.2.4-.4.6-.7.4.4.8.7 1.2 1-.2.3-.5.5-.7.7l-.7.7c-.4-.4-.7-.8-1-1.2.2 0 .4-.3.6-.5zm-10.9 4.6h.9c0 .5.1 1 .1 1.5h-2c0-.5.1-1 .1-1.5h.9zm-11-4.6c.2.2.4.4.7.6-.4.4-.7.8-1 1.2-.3-.2-.5-.5-.7-.7l-.7-.7c.4-.4.8-.7 1.2-1 .1.2.3.4.5.6zm-4.5-10.9v.9c-.5 0-1 .1-1.5.1v-2c.5 0 1 .1 1.5.1v.9zm4.5-11c-.2.2-.4.4-.6.7-.4-.4-.8-.7-1.2-1 .2-.3.5-.5.7-.7l.7-.7c.4.4.7.8 1 1.2-.2.1-.4.3-.6.5zm11-11.1h-.8c-.1-.5.1-1.4.8-1.4.6 0 .8.9.8 1.4h-.8zm15.6 6.5l-.5-.5c.3-.4 1.1-.9 1.5-.5.4.4 0 1.2-.5 1.5-.2-.2-.3-.4-.5-.5zM72 49.9v-.8c.5-.1 1.4.1 1.4.8 0 .6-.9.8-1.4.8v-.8zm-6.5 15.6l.5-.5c.4.3.9 1.1.5 1.5-.4.4-1.2 0-1.5-.5.1-.2.3-.3.5-.5zM49.9 72h.8c.1.5-.1 1.4-.8 1.4-.6 0-.8-.9-.8-1.4h.8zm-15.6-6.5l.5.5c-.3.4-1.1.9-1.5.5-.4-.4 0-1.2.5-1.5l.5.5zm-6.5-15.6v.8c-.5.1-1.4-.1-1.4-.8 0-.6.9-.8 1.4-.8v.8zm6.5-15.6l-.5.5c-.4-.3-.9-1.1-.5-1.5.4-.4 1.2 0 1.5.5-.2.1-.4.3-.5.5zm15.5 15.5s-.1 0 0 0c-.1 0-.1 0 0 0 0-.1 0-.1 0 0 0 0 0-.1 0 0zM47.6 33c0 .5.1 1 .1 1.5l-1.5.3c-.1-.5-.2-1-.4-1.5.5-.1 1.1-.2 1.8-.3zm-11.3 6.6c.4.4.8.6 1.2 1-.3.4-.6.8-.9 1.3-.4-.3-.9-.6-1.3-.8.3-.5.6-1 1-1.5zM33 52.2c.5 0 1-.1 1.5-.1l.3 1.5c-.5.1-1 .2-1.5.4l-.3-1.8zm6.6 11.3c.4-.4.6-.8 1-1.2.4.3.8.6 1.3.9-.3.4-.6.9-.8 1.3-.5-.3-1-.7-1.5-1zm12.6 3.3c0-.5-.1-1-.1-1.5l1.5-.3c.1.5.2 1 .4 1.5l-1.8.3zm11.3-6.6c-.4-.4-.8-.6-1.2-1 .3-.4.6-.8.9-1.3.4.3.9.6 1.3.8-.3.5-.7 1-1 1.5zm3.3-12.6c-.5 0-1 .1-1.5.1l-.3-1.5c.5-.1 1-.2 1.5-.4.1.5.2 1.1.3 1.8zm-6.6-11.3c-.4.4-.6.8-1 1.2-.4-.3-.8-.6-1.3-.9.3-.4.6-.9.8-1.3.5.3 1 .6 1.5 1zm-8-3.3c0 .5-.1 1-.1 1.5l1.5.3c.1-.5.2-1 .4-1.5l-1.8-.3zm-12.6 3.3c.4.4.6.8 1 1.2.4-.3.8-.6 1.3-.9-.3-.4-.6-.9-.8-1.3-.5.3-1 .6-1.5 1zM33 47.6c.5 0 1 .1 1.5.1l.3-1.5c-.5-.1-1-.2-1.5-.4-.1.5-.2 1.1-.3 1.8zm3.3 12.6c.4-.4.8-.6 1.2-1-.3-.4-.6-.8-.9-1.3-.4.3-.9.6-1.3.8.3.5.6 1 1 1.5zm11.3 6.6c0-.5.1-1 .1-1.5l-1.5-.3c-.1.5-.2 1-.4 1.5.5.1 1.1.2 1.8.3zm12.6-3.3c-.4-.4-.6-.8-1-1.2-.4.3-.8.6-1.3.9.3.4.6.9.8 1.3.5-.3 1-.7 1.5-1zm6.6-11.3c-.5 0-1-.1-1.5-.1l-.3 1.5c.5.1 1 .2 1.5.4l.3-1.8zm-3.3-12.6c-.4.4-.8.6-1.2 1 .3.4.6.8.9 1.3.4-.3.9-.6 1.3-.8-.3-.5-.7-1-1-1.5z" fill="#F9EEE5"/><path d="M44.4 17.3c.8.1 1.4.9 1.3 1.7-.1.7-.7 1.4-1.5 1.4s-1.4-.7-1.5-1.5c-.1-.8.5-1.5 1.3-1.7h.2c.1.1.2.1.2.1zM23 30.7c.7-.5 1.6-.4 2.1.3.5.6.5 1.5 0 2.1-.6.6-1.5.5-2.1 0-.6-.5-.7-1.5-.2-2.1l.1-.1c0-.1.1-.2.1-.2zm-5.7 24.6c.1-.8.9-1.4 1.7-1.3.7.1 1.4.7 1.4 1.5s-.7 1.4-1.5 1.5c-.8.1-1.5-.5-1.7-1.3v-.2c.1-.1.1-.1.1-.2zm13.4 21.4c-.5-.7-.4-1.6.3-2.1.6-.5 1.5-.5 2.1 0 .6.6.5 1.5 0 2.1-.5.6-1.5.7-2.1.2l-.1-.1c-.1 0-.2 0-.2-.1zm24.6 5.7c-.8-.1-1.4-.9-1.3-1.7.1-.7.7-1.4 1.5-1.4s1.4.7 1.5 1.5c.1.8-.5 1.5-1.3 1.7h-.2c-.1 0-.1 0-.2-.1zm21.4-13.3c-.7.5-1.6.4-2.1-.3-.5-.6-.5-1.5 0-2.1.6-.6 1.5-.5 2.1 0 .6.5.7 1.5.2 2.1l-.1.1c0 .1 0 .1-.1.2zm5.7-24.7c-.1.8-.9 1.4-1.7 1.3-.7-.1-1.4-.7-1.4-1.5s.7-1.4 1.5-1.5c.8-.1 1.5.5 1.7 1.3v.2c0 .1 0 .2-.1.2zM69.1 23c.5.7.4 1.6-.3 2.1-.6.5-1.5.5-2.1 0-.6-.6-.5-1.5 0-2.1.5-.6 1.5-.7 2.1-.2l.1.1c.1 0 .1.1.2.1zm-13.8-5.7c-.8.1-1.4.9-1.3 1.7.1.7.7 1.4 1.5 1.4s1.4-.7 1.5-1.5c.1-.8-.5-1.5-1.3-1.7h-.2c-.1.1-.1.1-.2.1zM30.7 23c-.5.7-.4 1.6.3 2.1.6.5 1.5.5 2.1 0 .6-.6.5-1.5 0-2.1-.5-.6-1.5-.7-2.1-.2l-.1.1c-.1 0-.2.1-.2.1zM17.3 44.4c.1.8.9 1.4 1.7 1.3.7-.1 1.4-.7 1.4-1.5s-.7-1.4-1.5-1.5c-.8-.1-1.5.5-1.7 1.3v.2c.1.1.1.2.1.2zM23 69.1c.7.5 1.6.4 2.1-.3.5-.6.5-1.5 0-2.1-.6-.6-1.5-.5-2.1 0-.6.5-.7 1.5-.2 2.1l.1.1c0 .1.1.1.1.2zm21.4 13.3c.8-.1 1.4-.9 1.3-1.7-.1-.7-.7-1.4-1.5-1.4s-1.4.7-1.5 1.5c-.1.8.5 1.5 1.3 1.7h.2c.1 0 .2 0 .2-.1zm24.7-5.7c.5-.7.4-1.6-.3-2.1-.6-.5-1.5-.5-2.1 0-.6.6-.5 1.5 0 2.1.5.6 1.5.7 2.1.2l.1-.1c.1 0 .1 0 .2-.1zm13.3-21.4c-.1-.8-.9-1.4-1.7-1.3-.7.1-1.4.7-1.4 1.5s.7 1.4 1.5 1.5c.8.1 1.5-.5 1.7-1.3v-.2c0-.1 0-.1-.1-.2zm-5.7-24.6c-.7-.5-1.6-.4-2.1.3-.5.6-.5 1.5 0 2.1.6.6 1.5.5 2.1 0 .6-.5.7-1.5.2-2.1l-.1-.1c0-.1 0-.2-.1-.2z" fill="#563431"/><path d="M43.3 34.1c.4-.1.7-.3 1.1-.4.2.5.3 1 .4 1.5-.3.1-.6.2-.8.3h-.2c-.3.1-.6.3-.8.4-.3-.4-.6-.9-.8-1.3.4-.2.8-.4 1.1-.5zm13.1 0c.4.2.7.3 1.1.5-.2.5-.5.9-.8 1.3-.3-.1-.5-.3-.8-.4h-.2c-.3-.1-.6-.2-.8-.3.1-.5.2-1 .4-1.5.4.1.7.2 1.1.4zm9.3 9.2c.1.4.3.7.4 1.1-.5.2-1 .3-1.5.4-.1-.3-.2-.6-.3-.8v-.2c-.1-.3-.3-.6-.4-.8.4-.3.9-.6 1.3-.8.1.4.3.8.5 1.1zm0 13.1c-.2.4-.3.7-.5 1.1-.5-.2-.9-.5-1.3-.8.1-.3.3-.5.4-.8v-.2c.1-.3.2-.6.3-.8.5.1 1 .2 1.5.4-.1.4-.3.7-.4 1.1zm-9.3 9.3c-.4.1-.7.3-1.1.4-.2-.5-.3-1-.4-1.5.3-.1.6-.2.8-.3h.2c.3-.1.6-.2.8-.4.3.4.6.9.8 1.3-.4.1-.7.3-1.1.5zm-13.1 0c-.4-.2-.7-.3-1.1-.5.2-.5.5-.9.8-1.3.3.1.5.3.8.4h.2c.3.1.6.2.8.3-.1.5-.2 1-.4 1.5-.3-.1-.7-.3-1.1-.4zm-9.2-9.3c-.1-.4-.3-.7-.4-1.1.5-.2 1-.3 1.5-.4.1.3.2.6.3.8v.2c.1.3.2.6.4.8-.4.3-.9.6-1.3.8-.2-.4-.4-.7-.5-1.1zm0-13.1c.2-.4.3-.7.5-1.1.5.2.9.5 1.3.8-.1.3-.3.5-.4.8v.2c-.1.3-.2.6-.3.8-.5-.1-1-.2-1.5-.4.1-.3.2-.7.4-1.1z" fill="#F9EEE5"/><path d="M39.3 24.5c2.3-.9 4.7 1.9 4.8 4-.3.1-.5.1-.8.2-.4-1.2-1.7-2.3-3-1.8-1.3.5-1.5 2.2-.9 3.4-.2.1-.5.3-.7.4-1.4-1.6-1.6-5.3.6-6.2zm21.1 0c2.3 1 2 4.7.6 6.3-.2-.1-.5-.3-.7-.4.6-1.2.4-2.8-.9-3.4-1.3-.5-2.6.5-3 1.8-.3-.1-.5-.2-.8-.2.1-2.3 2.5-5.1 4.8-4.1zm14.9 14.8c.9 2.3-1.9 4.7-4 4.8-.1-.3-.1-.5-.2-.8 1.2-.4 2.3-1.7 1.8-3-.5-1.3-2.2-1.5-3.4-.9-.1-.3-.3-.5-.4-.7 1.5-1.4 5.2-1.6 6.2.6zm0 21.1c-1 2.3-4.7 2-6.3.6.1-.2.3-.5.4-.7 1.2.6 2.8.4 3.4-.9.5-1.3-.5-2.6-1.8-3 .1-.3.2-.5.2-.8 2.2.1 5 2.5 4.1 4.8zM60.4 75.3c-2.3.9-4.7-1.9-4.8-4 .3-.1.5-.1.8-.2.4 1.2 1.7 2.3 3 1.8 1.3-.5 1.5-2.2.9-3.4.2-.1.5-.3.7-.4 1.4 1.5 1.7 5.2-.6 6.2zm-21.1 0c-2.3-1-2-4.7-.6-6.3.2.1.5.3.7.4-.6 1.2-.4 2.8.9 3.4 1.3.5 2.6-.5 3-1.8.3.1.5.2.8.2 0 2.2-2.5 5-4.8 4.1zM24.5 60.4c-.9-2.3 1.9-4.7 4-4.8.1.3.1.5.2.8-1.2.4-2.3 1.7-1.8 3 .5 1.3 2.2 1.5 3.4.9.1.3.3.5.4.7-1.6 1.4-5.3 1.7-6.2-.6zm0-21.1c1-2.3 4.7-2 6.3-.6-.1.2-.3.5-.4.7-1.2-.6-2.8-.4-3.4.9-.5 1.3.5 2.6 1.8 3-.1.3-.2.5-.2.8-2.3 0-5.1-2.5-4.1-4.8z" fill="#05A49D"/><path d="M40.9 28.2c.5-.2 1.1.5 1.2 1-.2.1-.4.2-.7.2h-.2l-.6.3c-.2-.4-.3-1.3.3-1.5zm18 0c.5.2.4 1.1.2 1.6l-.6-.3h-.2c-.2-.1-.4-.2-.7-.2.2-.6.7-1.4 1.3-1.1zm12.7 12.7c.2.5-.5 1.1-1 1.2-.1-.2-.2-.4-.2-.7v-.2l-.3-.6c.4-.2 1.3-.3 1.5.3zm0 18c-.2.5-1.1.4-1.6.2l.3-.6v-.2c.1-.2.2-.4.2-.7.6.2 1.3.7 1.1 1.3zM58.9 71.6c-.5.2-1.1-.5-1.2-1 .2-.1.4-.2.7-.2h.2l.6-.3c.1.4.2 1.3-.3 1.5zm-18 0c-.5-.2-.4-1.1-.2-1.6l.6.3h.2c.2.1.4.2.7.2-.2.6-.8 1.3-1.3 1.1zM28.2 58.9c-.2-.5.5-1.1 1-1.2.1.2.2.4.2.7v.2l.3.6c-.4.1-1.3.2-1.5-.3zm0-18c.2-.5 1.1-.4 1.6-.2l-.3.6v.2c-.1.2-.2.4-.2.7-.6-.2-1.4-.8-1.1-1.3z" fill="#F9EEE5"/></g><defs><clipPath id="clip0"><path fill="#fff" d="M0 0h99.7v99.7H0z"/></clipPath></defs></svg>