<svg width="198" height="203" fill="none" xmlns="http://www.w3.org/2000/svg"><g filter="url(#filter0_d)"><path d="M100.5 6.2c-.4 0-.9.2-1.1.6-3.5 7.5-10 13.1-15.7 18.9-4 4.1-8.2 8.5-8.9 14.2-4.5-3.6-10.6-3.7-16.3-3.8-8.1-.2-16.7.5-24.5-2.3-.4-.2-.9 0-1.2.3-.3.3-.5.8-.3 1.2 2.8 7.8 2.1 16.3 2.3 24.4.1 5.8.2 11.8 3.8 16.3-5.7.7-10.1 4.9-14.2 8.9-5.8 5.6-11.4 12.2-18.9 15.7-.4.2-.6.6-.6 1.1 0 .4.2.9.6 1.1 7.5 3.5 13.1 10 18.9 15.7 4.1 4 8.5 8.2 14.2 8.9-3.6 4.5-3.7 10.6-3.8 16.3-.2 8.1.5 16.7-2.3 24.5-.2.4 0 .9.3 1.2.3.3.8.5 1.2.3 7.8-2.8 16.3-2.1 24.5-2.3 5.8-.1 11.8-.2 16.3-3.8.7 5.7 4.9 10.1 8.9 14.2 5.6 5.8 12.2 11.4 15.7 18.9.2.4.6.6 1.1.6.4 0 .9-.2 1.1-.6 3.5-7.5 10-13.1 15.7-18.9 4-4.1 8.2-8.5 8.9-14.2 4.5 3.6 10.6 3.7 16.3 3.8 8.1.2 16.7-.5 24.4 2.3.4.2.9 0 1.2-.3.3-.3.5-.8.3-1.2-2.8-7.8-2.1-16.3-2.3-24.5-.1-5.8-.2-11.8-3.8-16.3 5.7-.7 10.1-4.9 14.2-8.9 5.8-5.6 11.4-12.2 18.9-15.7.4-.2.6-.6.6-1.1 0-.4-.2-.9-.6-1.1-7.5-3.5-13.1-10-18.9-15.7-4.1-4-8.5-8.2-14.2-8.9 3.6-4.5 3.7-10.6 3.8-16.3.2-8.1-.5-16.7 2.3-24.4.2-.4 0-.9-.3-1.2-.3-.3-.8-.5-1.2-.3-7.8 2.8-16.3 2.1-24.4 2.3-5.8.1-11.8.2-16.3 3.8-.7-5.7-4.9-10.1-8.9-14.2-5.6-5.8-12.2-11.4-15.7-18.9-.2-.4-.7-.6-1.1-.6z" fill="#222640"/><path d="M74.8 40c.7-5.7 4.9-10.1 8.9-14.2C89.3 20 95.9 14.4 99.4 6.9c.2-.4.6-.6 1.1-.6.4 0 .9.2 1.1.6 3.5 7.5 10 13.1 15.7 18.9 4 4.1 8.2 8.5 8.9 14.2 4.5-3.6 10.6-3.7 16.3-3.8 8.1-.2 16.7.5 24.4-2.3.4-.2.9 0 1.2.3.3.3.5.8.3 1.2-2.8 7.8-2.1 16.3-2.3 24.4-.1 5.8-.2 11.8-3.8 16.3 5.7.7 10.1 4.9 14.2 8.9 5.8 5.6 11.4 12.2 18.9 15.7.4.2.6.6.6 1.1 0 .4-.2.9-.6 1.1-7.5 3.5-13.1 10-18.9 15.7-4.1 4-8.5 8.2-14.2 8.9 3.6 4.5 3.7 10.6 3.8 16.3.2 8.1-.5 16.7 2.3 24.5.2.4 0 .9-.3 1.2-.3.3-.8.5-1.2.3-7.8-2.8-16.3-2.1-24.4-2.3-5.8-.1-11.8-.2-16.3-3.8-.7 5.7-4.9 10.1-8.9 14.2-5.6 5.8-12.2 11.4-15.7 18.9-.2.4-.6.6-1.1.6-.4 0-.9-.2-1.1-.6-3.5-7.5-10-13.1-15.7-18.9-4-4.1-8.2-8.5-8.9-14.2-4.5 3.6-10.6 3.7-16.3 3.8-8.1.2-16.7-.5-24.5 2.3-.4.2-.9 0-1.2-.3-.3-.3-.5-.8-.3-1.2 2.8-7.8 2.1-16.3 2.3-24.5.1-5.8.2-11.8 3.8-16.3-5.7-.7-10.1-4.9-14.2-8.9-5.8-5.6-11.4-12.2-18.9-15.7-.4-.2-.6-.6-.6-1.1 0-.4.2-.9.6-1.1 7.5-3.5 13.1-10 18.9-15.7 4.1-4 8.5-8.2 14.2-8.9-3.6-4.5-3.7-10.6-3.8-16.3-.2-8.1.5-16.7-2.3-24.4-.2-.4 0-.9.3-1.2.3-.3.8-.5 1.2-.3 7.8 2.8 16.3 2.1 24.5 2.3 5.8.1 11.8.2 16.3 3.8zm25.7 23.2c-5 0-10 .9-14.8 2.8-4.7 2.1-9 5-12.5 8.5s-6.4 7.7-8.5 12.5c-1.9 4.8-2.8 9.8-2.8 14.8s.9 10 2.8 14.8c2.1 4.7 5 9 8.5 12.5s7.7 6.4 12.5 8.5c4.8 1.9 9.8 2.8 14.8 2.8s10-.9 14.8-2.8c4.7-2.1 9-5 12.5-8.5s6.4-7.7 8.5-12.5c1.9-4.8 2.8-9.8 2.8-14.8s-.9-10-2.8-14.8c-2.1-4.7-5-9-8.5-12.5s-7.7-6.4-12.5-8.5c-4.8-1.9-9.8-2.8-14.8-2.8zm0-50.4c-4.6 5.4-10.1 9.8-14.8 15.1-5 5.5-8.9 13.5-5.1 20.5 4-.7 7.9 1.3 10.1 4.5 1-4.5 4.7-8.3 9.8-8.3 5 0 8.8 3.8 9.8 8.3 2.2-3.2 6.1-5.3 10.1-4.5 3.9-7-.1-15.1-5.1-20.5-4.8-5.3-10.3-9.7-14.8-15.1zm62.9 26.1c-7.1.6-14.1-.2-21.1.2-7.4.3-15.9 3.2-18.1 10.9 3.4 2.3 4.7 6.5 4 10.4 3.9-2.5 9.2-2.5 12.8 1 3.6 3.6 3.5 8.9 1 12.8 3.9-.7 8.1.6 10.4 4 7.7-2.2 10.6-10.7 10.9-18.1.3-7.2-.5-14.2.1-21.2zm26.1 62.9c-5.4-4.6-9.8-10.1-15.1-14.8-5.5-5-13.5-8.9-20.5-5.1.7 4-1.3 7.9-4.5 10.1 4.5 1 8.3 4.7 8.3 9.8 0 5-3.8 8.8-8.3 9.8 3.2 2.2 5.3 6.1 4.5 10.1 7 3.9 15.1-.1 20.5-5.1 5.3-4.7 9.7-10.2 15.1-14.8zm-26.1 63c-.6-7.1.2-14.1-.2-21.1-.3-7.4-3.2-15.9-10.9-18.1-2.3 3.4-6.5 4.7-10.4 4 2.5 3.9 2.5 9.2-1 12.8-3.6 3.6-8.9 3.5-12.8 1 .7 3.9-.6 8.1-4 10.4 2.2 7.7 10.7 10.6 18.1 10.9 7.2.3 14.2-.5 21.2.1zm-62.9 26.1c4.6-5.4 10.1-9.8 14.8-15.1 5-5.5 8.9-13.5 5.1-20.5-4 .7-7.9-1.3-10.1-4.5-1 4.5-4.7 8.3-9.8 8.3-5 0-8.8-3.8-9.8-8.3-2.2 3.2-6.1 5.3-10.1 4.5-3.9 7 .1 15.1 5.1 20.5 4.7 5.2 10.2 9.6 14.8 15.1zm-63-26.1c7.1-.6 14.1.2 21.1-.2 7.4-.3 15.9-3.2 18.1-10.9-3.4-2.3-4.7-6.5-4-10.4-3.9 2.5-9.2 2.5-12.8-1-3.6-3.6-3.5-8.9-1-12.8-3.9.7-8.1-.6-10.4-4-7.7 2.2-10.6 10.7-10.9 18.1-.3 7.1.5 14.1-.1 21.2zm-26.1-63c5.4 4.6 9.8 10.1 15.1 14.8 5.5 5 13.5 8.9 20.5 5.1-.7-4 1.3-7.9 4.5-10.1-4.5-1-8.3-4.7-8.3-9.8 0-5 3.8-8.8 8.3-9.8-3.2-2.2-5.3-6.1-4.5-10.1-7-3.8-15.1.1-20.5 5.1-5.2 4.8-9.6 10.3-15.1 14.8zm26.1-62.9c.6 7.1-.2 14.1.2 21.1.3 7.4 3.2 15.9 10.9 18.1 2.3-3.4 6.5-4.7 10.4-4-2.5-3.9-2.5-9.2 1-12.8 3.6-3.6 8.9-3.5 12.8-1-.7-3.9.6-8.1 4-10.4C74.5 42.3 66 39.4 58.6 39c-7-.3-14 .5-21.1-.1zm63 10.2c-4.9 0-7 6.8-5.6 10.7.5-.1 1.1-.1 1.6-.2-.3-2.5 1.4-5.4 4-5.4s4.3 2.9 4 5.4c.5 0 1 .1 1.6.2 1.3-3.9-.8-10.7-5.6-10.7zm37.3 15.5c-3.4-3.4-9.7-.1-11.6 3.6.4.3.8.7 1.2 1 1.5-2 4.8-2.8 6.7-1 1.9 1.9 1 5.1-1 6.7.3.4.7.8 1 1.2 3.8-1.8 7.1-8.1 3.7-11.5zm15.4 37.2c0-4.9-6.8-7-10.7-5.6.1.5.1 1.1.2 1.6 2.5-.3 5.4 1.4 5.4 4s-2.9 4.3-5.4 4c0 .5-.1 1-.2 1.6 3.9 1.4 10.7-.7 10.7-5.6zm-15.4 37.3c3.4-3.4.1-9.7-3.6-11.6-.3.4-.7.8-1 1.2 2 1.5 2.8 4.8 1 6.7-1.9 1.9-5.1 1-6.7-1-.4.3-.8.7-1.2 1 1.7 3.9 8 7.2 11.5 3.7zm-37.3 15.5c4.9 0 7-6.8 5.6-10.7-.5.1-1.1.1-1.6.2.3 2.5-1.4 5.4-4 5.4s-4.3-2.9-4-5.4c-.5 0-1-.1-1.6-.2-1.4 3.9.7 10.7 5.6 10.7zm-37.3-15.5c3.4 3.4 9.7.1 11.6-3.6-.4-.3-.8-.7-1.2-1-1.5 2-4.8 2.8-6.7 1-1.9-1.9-1-5.1 1-6.7-.3-.4-.7-.8-1-1.2-3.8 1.8-7.2 8.1-3.7 11.5zm-15.5-37.3c0 4.9 6.8 7 10.7 5.6-.1-.5-.1-1.1-.2-1.6-2.5.3-5.4-1.4-5.4-4s2.9-4.3 5.4-4c0-.5.1-1 .2-1.6-3.9-1.3-10.7.8-10.7 5.6zm15.5-37.2c-3.4 3.4-.1 9.7 3.6 11.6.3-.4.7-.8 1-1.2-2-1.5-2.8-4.8-1-6.7 1.9-1.9 5.1-1 6.7 1 .4-.3.8-.7 1.2-1-1.8-3.9-8.1-7.2-11.5-3.7zm37.3-7.8c-1.2 0-1.6 1.7-1.5 2.7h3c0-1-.3-2.7-1.5-2.7zM132.3 70c-.9-.9-2.3.1-3 .9.4.3.7.7 1 1l1 1c.9-.6 1.9-2 1-2.9zm13.2 31.8c0-1.2-1.7-1.6-2.7-1.5v3c1 .1 2.7-.3 2.7-1.5zm-13.2 31.9c.9-.9-.1-2.3-.9-3-.3.4-.7.7-1 1l-1 1c.6.9 2.1 1.8 2.9 1zm-31.8 13.2c1.2 0 1.6-1.7 1.5-2.7h-3c-.1 1 .3 2.7 1.5 2.7zm-31.9-13.2c.9.9 2.3-.1 3-.9-.4-.3-.7-.7-1-1l-1-1c-.9.6-1.8 2-1 2.9zm-13.2-31.9c0 1.2 1.7 1.6 2.7 1.5v-3c-1 0-2.7.3-2.7 1.5zM68.6 70c-.9.9.1 2.3.9 3 .3-.4.7-.7 1-1l1-1c-.6-.9-2-1.9-2.9-1zm13.7-12.1c2.5-1 5 1 5.7 3.4.5-.2 1-.3 1.6-.4-.2-4.2-4.9-9.6-9.3-7.7-4.4 1.8-3.9 8.9-1.1 12 .5-.3.9-.5 1.4-.8-1.2-2.3-.8-5.5 1.7-6.5zm36.4 0c2.5 1 2.8 4.2 1.7 6.4.5.3.9.5 1.4.8 2.8-3.1 3.3-10.2-1.1-12-4.4-1.8-9.1 3.6-9.3 7.7.5.1 1 .3 1.6.4.7-2.3 3.2-4.3 5.7-3.3zm25.7 25.7c1 2.5-1 5-3.4 5.7.2.5.3 1 .4 1.6 4.2-.2 9.6-4.9 7.7-9.3-1.8-4.4-8.9-3.9-12-1.1.3.5.5.9.8 1.4 2.3-1.1 5.5-.7 6.5 1.7zm0 36.4c-1 2.5-4.2 2.8-6.4 1.7-.3.5-.5.9-.8 1.4 3.1 2.8 10.2 3.3 12-1.1 1.8-4.4-3.6-9.1-7.7-9.3-.1.5-.3 1-.4 1.6 2.3.7 4.3 3.3 3.3 5.7zm-25.7 25.8c-2.5 1-5-1-5.7-3.4-.5.2-1 .3-1.6.4.2 4.2 4.9 9.6 9.3 7.7 4.4-1.8 3.9-8.9 1.1-12-.5.3-.9.5-1.4.8 1.1 2.2.7 5.4-1.7 6.5zm-36.4 0c-2.5-1-2.8-4.2-1.7-6.4-.5-.3-.9-.5-1.4-.8-2.8 3.1-3.3 10.2 1.1 12 4.4 1.8 9.1-3.6 9.3-7.7-.5-.1-1-.3-1.6-.4-.7 2.3-3.3 4.3-5.7 3.3zM56.5 120c-1-2.5 1-5 3.4-5.7-.2-.5-.3-1-.4-1.6-4.2.2-9.6 4.9-7.7 9.3 1.8 4.4 8.9 3.9 12 1.1-.3-.5-.5-.9-.8-1.4-2.2 1.2-5.4.8-6.5-1.7zm0-36.4c1-2.5 4.2-2.8 6.4-1.7.3-.5.5-.9.8-1.4-3.1-2.8-10.2-3.3-12 1.1-1.8 4.4 3.6 9.1 7.7 9.3.1-.5.3-1 .4-1.6-2.3-.7-4.3-3.2-3.3-5.7zm27.7-21l.1-.1c.4-.2.8-.3 1.3-.5-.3-.9-1.3-2.3-2.4-1.9-1 .4-.8 2.1-.4 3l1.2-.6c.1.2.2.1.2.1zm32.5 0h.1l1.2.6c.5-.9.7-2.6-.4-3-1-.4-2.1.9-2.4 1.9.4.2.8.3 1.3.5h.2zm23 23l.1.1c.2.4.3.8.5 1.3.9-.3 2.3-1.3 1.9-2.4-.4-1.1-2.1-.8-3-.4l.6 1.2c-.2.1-.1.2-.1.2zm0 32.5v.1l-.6 1.2c.9.5 2.6.7 3-.4.4-1-.9-2.1-1.9-2.4-.2.4-.3.8-.5 1.3v.2zm-23 23l-.1.1c-.4.2-.8.3-1.3.5.3.9 1.3 2.3 2.4 1.9 1.1-.4.8-2.1.4-3l-1.2.6c-.1-.2-.1-.2-.2-.1zm-32.5 0h-.1l-1.2-.6c-.5.9-.7 2.6.4 3 1 .4 2.1-.9 2.4-1.9-.4-.2-.8-.3-1.3-.5h-.2zm-22.9-23l-.1-.1c-.2-.4-.3-.8-.5-1.3-.9.3-2.3 1.3-1.9 2.4.4 1 2.1.8 3 .4l-.6-1.2c.1-.1.1-.2.1-.2zm0-32.5v-.1l.6-1.2c-.9-.5-2.6-.7-3 .4-.4 1 .9 2.1 1.9 2.4.2-.4.3-.8.5-1.3-.1-.1-.1-.2 0-.2z" fill="#FFEFE1"/><path d="M85.6 66c4.8-1.9 9.8-2.8 14.8-2.8s10 .9 14.8 2.8c4.7 2.1 9 5 12.5 8.5s6.4 7.7 8.5 12.5c1.9 4.8 2.8 9.8 2.8 14.8s-.9 10-2.8 14.8c-2.1 4.7-5 9-8.5 12.5s-7.7 6.4-12.5 8.5c-4.8 1.9-9.8 2.8-14.8 2.8s-10-.9-14.8-2.8c-4.7-2.1-9-5-12.5-8.5s-6.4-7.7-8.5-12.5c-1.9-4.8-2.8-9.8-2.8-14.8s.9-10 2.8-14.8c2.1-4.7 5-9 8.5-12.5 3.6-3.5 7.8-6.4 12.5-8.5zm14.9.6c-4.5 0-9 .8-13.4 2.5-.1 0-.1 0-.1.1h-.1c-4.3 1.8-8.1 4.5-11.2 7.7-3.2 3.2-5.8 6.9-7.7 11.2v.1l-.1.1c-1.7 4.3-2.6 8.9-2.5 13.4 0 4.5.8 9 2.5 13.4 0 .1 0 .1.1.1v.1c1.8 4.3 4.5 8.1 7.7 11.2 3.2 3.2 6.9 5.8 11.2 7.7h.1l.1.1c4.3 1.7 8.9 2.6 13.4 2.5 4.5 0 9-.8 13.4-2.5.1 0 .1 0 .1-.1h.1c4.3-1.8 8.1-4.5 11.2-7.7 3.2-3.2 5.8-6.9 7.7-11.2v-.1l.1-.1c1.7-4.3 2.6-8.9 2.5-13.4 0-4.5-.8-9-2.5-13.4 0-.1 0-.1-.1-.1v-.1c-1.8-4.3-4.5-8.1-7.7-11.2-3.2-3.2-6.9-5.8-11.2-7.7h-.1l-.1-.1c-4.4-1.7-8.9-2.5-13.4-2.5z" fill="#F26E22"/><path d="M87 69.3l.1-.1c4.3-1.7 8.9-2.6 13.4-2.5 4.5 0 9 .8 13.4 2.5.1 0 .1 0 .1.1h.1c4.3 1.8 8.1 4.5 11.2 7.7 3.2 3.2 5.8 6.9 7.7 11.2v.1l.1.1c1.7 4.3 2.6 8.9 2.5 13.4 0 4.5-.8 9-2.5 13.4 0 .1 0 .1-.1.1v.1c-1.8 4.3-4.5 8.1-7.7 11.2-3.2 3.2-6.9 5.8-11.2 7.7h-.1l-.1.1c-4.3 1.7-8.9 2.6-13.4 2.5-4.5 0-9-.8-13.4-2.5-.1 0-.1 0-.1-.1h-.1c-4.3-1.8-8.1-4.5-11.2-7.7-3.2-3.2-5.8-6.9-7.7-11.2v-.1l-.1-.1c-1.7-4.3-2.6-8.9-2.5-13.4 0-4.5.8-9 2.5-13.4 0-.1 0-.1.1-.1v-.1c1.8-4.3 4.5-8.1 7.7-11.2 3.2-3.2 6.9-5.8 11.2-7.7h.1zm13.5 5.4c-3.5 0-7.1.6-10.4 2-3.3 1.5-6.3 3.5-8.8 6-2.5 2.5-4.5 5.4-6 8.8-1.3 3.4-2 6.9-2 10.4s.6 7.1 2 10.4c1.5 3.3 3.5 6.3 6 8.8 2.5 2.5 5.4 4.5 8.8 6 3.4 1.3 6.9 2 10.4 2s7.1-.6 10.4-2c3.3-1.5 6.3-3.5 8.8-6 2.5-2.5 4.5-5.4 6-8.8 1.3-3.4 2-6.9 2-10.4s-.6-7.1-2-10.4c-1.5-3.3-3.5-6.3-6-8.8-2.5-2.5-5.4-4.5-8.8-6-3.4-1.4-6.9-2-10.4-2zm0-5.5c-.6 0-1.3 0-1.9.1 0 1 .2 2 .2 2.9h3.4c0-1 .2-2 .2-2.9-.7-.1-1.3-.1-1.9-.1zm23.1 9.5c-.5-.5-.9-.9-1.4-1.3-.7.7-1.3 1.5-1.9 2.2l1.2 1.2 1.2 1.2c.7-.7 1.5-1.3 2.2-1.9-.4-.4-.9-.9-1.3-1.4zm9.5 23.1c0-.6 0-1.3-.1-1.9-1 0-2 .2-2.9.2v3.4c1 0 2 .2 2.9.2.1-.6.1-1.2.1-1.9zm-9.5 23.1c.5-.5.9-.9 1.3-1.4-.7-.7-1.5-1.3-2.2-1.9l-1.2 1.2-1.2 1.2c.7.7 1.3 1.5 1.9 2.2.4-.4.9-.8 1.4-1.3zm-23.1 9.6c.6 0 1.3 0 1.9-.1 0-1-.2-2-.2-2.9h-3.4c0 1-.2 2-.2 2.9.6.1 1.2.1 1.9.1zm-23.1-9.6c.5.5.9.9 1.4 1.3.7-.7 1.3-1.5 1.9-2.2l-1.2-1.2-1.2-1.2c-.7.7-1.5 1.3-2.2 1.9.4.5.8 1 1.3 1.4zm-9.6-23.1c0 .6 0 1.3.1 1.9 1 0 2-.2 2.9-.2v-3.4c-1 0-2-.2-2.9-.2-.1.7-.1 1.3-.1 1.9zm9.6-23.1c-.5.5-.9.9-1.3 1.4.7.7 1.5 1.3 2.2 1.9l1.2-1.2 1.2-1.2c-.7-.7-1.3-1.5-1.9-2.2-.5.5-1 .9-1.4 1.3zm18.8-6.3c0-1-.2-2-.2-3-1.2.2-2.4.4-3.5.6.3.9.6 1.9.8 2.9.9-.2 1.9-.3 2.9-.5zM76.7 84c-.7-.7-1.5-1.3-2.2-1.9-.8.9-1.5 1.9-2.1 2.9.9.4 1.8.9 2.6 1.5.5-.8 1-1.7 1.7-2.5zM71 106.1c-1 0-2 .2-3 .2.2 1.2.4 2.4.6 3.5.9-.3 1.9-.6 2.9-.8-.1-.9-.3-1.9-.5-2.9zm11.7 19.6c-.7.7-1.3 1.5-1.9 2.2.9.7 1.9 1.4 2.9 2 .4-.9.9-1.8 1.5-2.6-.9-.5-1.7-1-2.5-1.6zm22 5.6c0 1 .2 2 .2 3 1.2-.2 2.4-.4 3.5-.6-.3-.9-.6-1.9-.8-2.9-.9.2-1.9.3-2.9.5zm19.6-11.7c.7.7 1.5 1.3 2.2 1.9.7-.9 1.4-1.9 2-2.9-.9-.4-1.8-.9-2.6-1.5-.5.9-1 1.8-1.6 2.5zm5.6-22c1 0 2-.2 3-.2-.2-1.2-.4-2.4-.6-3.5-.9.3-1.9.6-2.9.8.2.9.4 1.9.5 2.9zM118.3 78c.7-.7 1.3-1.5 1.9-2.2-.9-.7-1.9-1.4-2.9-2-.4.9-.9 1.8-1.5 2.6.8.5 1.7 1 2.5 1.6zm-10.6-5c.2-1 .4-1.9.8-2.9-1.2-.3-2.3-.5-3.5-.6 0 1-.2 2-.2 3 .9.1 1.9.2 2.9.5zm-22.6 3.3c-.6-.8-1.1-1.7-1.5-2.6-1 .6-2 1.3-2.9 2 .7.7 1.2 1.5 1.9 2.2.9-.5 1.7-1 2.5-1.6zM71.6 94.7c-1-.2-1.9-.4-2.9-.8-.3 1.2-.5 2.3-.6 3.5 1 0 2 .2 3 .2.1-1 .3-2 .5-2.9zm3.4 22.5c-.8.6-1.7 1.1-2.6 1.5.6 1 1.3 2 2 2.9.7-.7 1.5-1.2 2.2-1.9-.6-.8-1.1-1.7-1.6-2.5zm18.3 13.5c-.2 1-.4 1.9-.8 2.9 1.2.3 2.3.5 3.5.6 0-1 .2-2 .2-3-1-.1-2-.2-2.9-.5zm22.5-3.4c.6.8 1.1 1.7 1.5 2.6 1-.6 2-1.3 2.9-2-.7-.7-1.2-1.5-1.9-2.2-.8.6-1.7 1.1-2.5 1.6zm13.5-18.3c1 .2 1.9.4 2.9.8.3-1.2.5-2.3.6-3.5-1 0-2-.2-3-.2 0 1-.2 2-.5 2.9zM126 86.5c.8-.6 1.7-1.1 2.6-1.5-.6-1-1.3-2-2-2.9-.7.7-1.5 1.2-2.2 1.9.5.8 1 1.7 1.6 2.5zM89.1 74.3l.1-.1c.5-.2 1.1-.4 1.6-.6-.2-1-.4-1.9-.8-2.9-.7.2-1.4.5-2.1.8-.7.3-1.4.6-2.1 1 .4.9.9 1.8 1.5 2.6.5-.3 1-.5 1.6-.7.1 0 .1-.1.2-.1zm22.8 0h.1c.5.2 1.1.5 1.6.7.6-.8 1.1-1.7 1.5-2.6-.7-.4-1.4-.7-2.1-1-.7-.3-1.4-.5-2.1-.8-.3.9-.6 1.9-.8 2.9.5.2 1.1.4 1.6.6.1.2.1.2.2.2zM128 90.4l.1.1c.2.5.4 1.1.6 1.6 1-.2 1.9-.4 2.9-.8-.2-.7-.5-1.4-.8-2.1-.3-.7-.6-1.4-1-2.1-.9.4-1.8.9-2.6 1.5.3.5.5 1 .7 1.6 0 .1.1.2.1.2zm0 22.8v.2c-.2.5-.5 1.1-.7 1.6.8.6 1.7 1.1 2.6 1.5.4-.7.7-1.4 1-2.1.3-.7.5-1.4.8-2.1-.9-.3-1.9-.6-2.9-.8-.2.5-.4 1.1-.6 1.6-.2 0-.2.1-.2.1zm-16.1 16.1l-.1.1c-.5.2-1.1.4-1.6.6.2 1 .4 1.9.8 2.9.7-.2 1.4-.5 2.1-.8.7-.3 1.4-.6 2.1-1-.4-.9-.9-1.8-1.5-2.6-.5.3-1 .5-1.6.7-.1.1-.2.1-.2.1zm-22.8 0h-.2c-.5-.2-1.1-.5-1.6-.7-.6.8-1.1 1.7-1.5 2.6.7.4 1.4.7 2.1 1 .7.3 1.4.5 2.1.8.3-.9.6-1.9.8-2.9-.5-.2-1.1-.4-1.6-.6 0-.1-.1-.1-.1-.2zM73 113.2l-.1-.1c-.2-.5-.4-1.1-.6-1.6-1 .2-1.9.4-2.9.8.2.7.5 1.4.8 2.1.3.7.6 1.4 1 2.1.9-.4 1.8-.9 2.6-1.5-.3-.5-.5-1-.7-1.6-.1-.1-.1-.1-.1-.2zm0-22.8v-.1c.2-.5.5-1.1.7-1.6-.8-.6-1.7-1.1-2.6-1.5-.4.7-.7 1.4-1 2.1-.3.7-.5 1.4-.8 2.1.9.3 1.9.6 2.9.8.2-.5.4-1.1.6-1.6l.2-.2z" fill="#FFEFE1"/><path d="M90 76.6c3.4-1.3 6.9-2 10.4-2s7.1.6 10.4 2c3.3 1.5 6.3 3.5 8.8 6 2.5 2.5 4.5 5.4 6 8.8 1.3 3.4 2 6.9 2 10.4s-.6 7.1-2 10.4c-1.5 3.3-3.5 6.3-6 8.8-2.5 2.5-5.4 4.5-8.8 6-3.4 1.3-6.9 2-10.4 2s-7.1-.6-10.4-2c-3.3-1.5-6.3-3.5-8.8-6-2.5-2.5-4.5-5.4-6-8.8-1.3-3.4-2-6.9-2-10.4s.6-7.1 2-10.4c1.5-3.3 3.5-6.3 6-8.8 2.5-2.5 5.5-4.5 8.8-6zm10.5 1.4c-3 0-6.1.5-9 1.7-.1 0-.1 0-.1.1 0 0-.1 0-.1.1-2.9 1.3-5.4 3.1-7.6 5.2-2.1 2.1-3.9 4.7-5.2 7.6 0 0 0 .1-.1.1 0 0 0 .1-.1.1-1.1 2.9-1.7 6-1.7 9s.5 6.1 1.7 9c0 .1 0 .1.1.1 0 0 0 .1.1.1 1.3 2.9 3.1 5.4 5.2 7.6 2.1 2.1 4.7 3.9 7.6 5.2.1 0 .1 0 .1.1 0 0 .1 0 .1.1 2.9 1.1 6 1.7 9 1.7s6.1-.5 9-1.7c.1 0 .1 0 .1-.1.1 0 .1 0 .1-.1 2.9-1.3 5.4-3.1 7.6-5.2 2.1-2.1 3.9-4.7 5.2-7.6 0-.1 0-.1.1-.1 0 0 0-.1.1-.1 1.1-2.9 1.7-6 1.7-9s-.5-6.1-1.7-9c0-.1 0-.1-.1-.1 0 0 0-.1-.1-.1-1.3-2.9-3.1-5.4-5.2-7.6-2.1-2.1-4.7-3.9-7.6-5.2 0 0-.1 0-.1-.1 0 0-.1 0-.1-.1-3-1.2-6-1.8-9-1.7z" fill="#F26E22"/><path d="M91.3 79.7s.1 0 .1-.1c2.9-1.1 6-1.7 9-1.7s6.1.5 9 1.7c.1 0 .1 0 .1.1.1 0 .1 0 .1.1 2.9 1.3 5.4 3.1 7.6 5.2 2.1 2.1 3.9 4.7 5.2 7.6 0 0 0 .1.1.1 0 0 0 .1.1.1 1.1 2.9 1.7 6 1.7 9s-.5 6.1-1.7 9c0 .1 0 .1-.1.1 0 0 0 .1-.1.1-1.3 2.9-3.1 5.4-5.2 7.6-2.1 2.1-4.7 3.9-7.6 5.2 0 0-.1 0-.1.1 0 0-.1 0-.1.1-2.9 1.1-6 1.7-9 1.7s-6.1-.5-9-1.7c-.1 0-.1 0-.1-.1 0 0-.1 0-.1-.1-2.9-1.3-5.4-3.1-7.6-5.2-2.1-2.1-3.9-4.7-5.2-7.6 0-.1 0-.1-.1-.1 0 0 0-.1-.1-.1-1.1-2.9-1.7-6-1.7-9s.5-6.1 1.7-9c0-.1 0-.1.1-.1 0 0 0-.1.1-.1 1.3-2.9 3.1-5.4 5.2-7.6 2.1-2.1 4.7-3.9 7.6-5.2 0-.1 0-.1.1-.1zm9.2.8c-1.9 0-3.7.2-5.6.7.2.2.4.5.5.8.6 1.4-.1 3-1.5 3.6h-.1s-.1 0-.1.1c-1.4.6-3.1-.1-3.6-1.5-.1-.3-.2-.6-.2-.9-1.6 1-3.1 2.2-4.4 3.5-1.3 1.3-2.5 2.8-3.5 4.4.3 0 .6 0 .9.2 1.4.5 2 2.2 1.5 3.6 0 0 0 .1-.1.1v.1c-.6 1.4-2.2 2.1-3.6 1.5-.3-.1-.5-.3-.8-.5-.5 1.9-.7 3.7-.7 5.6 0 1.9.2 3.7.7 5.6.2-.2.5-.4.8-.5 1.4-.6 3 .1 3.6 1.5v.1s0 .1.1.1c.6 1.4-.1 3.1-1.5 3.6-.3.1-.6.2-.9.2 1 1.6 2.2 3.1 3.5 4.4 1.3 1.3 2.8 2.5 4.4 3.5 0-.3 0-.6.2-.9.5-1.4 2.2-2 3.6-1.5 0 0 .1 0 .1.1h.1c1.4.6 2.1 2.2 1.5 3.6-.1.3-.3.5-.5.8 1.9.5 3.7.7 5.6.7 1.9 0 3.7-.2 5.6-.7-.2-.2-.4-.5-.5-.8-.6-1.4.1-3 1.5-3.6h.1s.1 0 .1-.1c1.4-.6 3.1.1 3.6 1.5.1.3.2.6.2.9 1.6-1 3.1-2.2 4.4-3.5 1.3-1.3 2.5-2.8 3.5-4.4-.3 0-.6 0-.9-.2-1.4-.5-2-2.2-1.5-3.6 0 0 0-.1.1-.1v-.1c.6-1.4 2.2-2.1 3.6-1.5.3.1.5.3.8.5.5-1.9.7-3.7.7-5.6 0-1.9-.2-3.7-.7-5.6-.2.2-.5.4-.8.5-1.4.6-3-.1-3.6-1.5v-.1s0-.1-.1-.1c-.6-1.4.1-3.1 1.5-3.6.3-.1.6-.2.9-.2-1-1.6-2.2-3.1-3.5-4.4-1.3-1.3-2.8-2.5-4.4-3.5 0 .3 0 .6-.2.9-.5 1.4-2.2 2-3.6 1.5 0 0-.1 0-.1-.1h-.1c-1.4-.6-2.1-2.2-1.5-3.6.1-.3.3-.5.5-.8-1.9-.5-3.8-.7-5.6-.7z" fill="#FFEFE1"/><path d="M100.5 44.6c-5 0-8.8 3.8-9.8 8.3-2.2-3.2-6.1-5.3-10.1-4.5-3.9-7 .1-15.1 5.1-20.5 4.8-5.2 10.3-9.6 14.8-15.1 4.6 5.4 10.1 9.8 14.8 15.1 5 5.5 8.9 13.5 5.1 20.5-4-.7-7.9 1.3-10.1 4.5-1.1-4.5-4.8-8.3-9.8-8.3zm40.4 16.8c-3.6-3.6-8.9-3.5-12.8-1 .7-3.9-.6-8.1-4-10.4 2.2-7.7 10.7-10.6 18.1-10.9 7.1-.3 14.1.5 21.1-.2-.6 7.1.2 14.1-.2 21.1-.3 7.4-3.2 15.9-10.9 18.1-2.3-3.4-6.5-4.7-10.4-4 2.6-3.8 2.7-9.2-.9-12.7zm16.8 40.4c0-5-3.8-8.8-8.3-9.8 3.2-2.2 5.3-6.1 4.5-10.1 7-3.9 15.1.1 20.5 5.1 5.2 4.8 9.6 10.3 15.1 14.8-5.4 4.6-9.8 10.1-15.1 14.8-5.5 5-13.5 8.9-20.5 5.1.7-4-1.3-7.9-4.5-10.1 4.5-1 8.3-4.7 8.3-9.8zm-16.8 40.5c3.6-3.6 3.5-8.9 1-12.8 3.9.7 8.1-.6 10.4-4 7.7 2.2 10.6 10.7 10.9 18.1.3 7.1-.5 14.1.2 21.1-7.1-.6-14.1.2-21.1-.2-7.4-.3-15.9-3.2-18.1-10.9 3.4-2.3 4.7-6.5 4-10.4 3.8 2.6 9.2 2.7 12.7-.9zm-40.4 16.8c5 0 8.8-3.8 9.8-8.3 2.2 3.2 6.1 5.3 10.1 4.5 3.9 7-.1 15.1-5.1 20.5-4.8 5.2-10.3 9.6-14.8 15.1-4.6-5.4-10.1-9.8-14.8-15.1-5-5.5-8.9-13.5-5.1-20.5 4 .7 7.9-1.3 10.1-4.5 1 4.5 4.7 8.3 9.8 8.3zM60 142.3c3.6 3.6 8.9 3.5 12.8 1-.7 3.9.6 8.1 4 10.4-2.2 7.7-10.7 10.6-18.1 10.9-7.1.3-14.1-.5-21.1.2.6-7.1-.2-14.1.2-21.1.3-7.4 3.2-15.9 10.9-18.1 2.3 3.4 6.5 4.7 10.4 4-2.6 3.8-2.7 9.2.9 12.7zm-16.8-40.5c0 5 3.8 8.8 8.3 9.8-3.2 2.2-5.3 6.1-4.5 10.1-7 3.9-15.1-.1-20.5-5.1-5.2-4.8-9.6-10.3-15.1-14.8 5.4-4.6 9.8-10.1 15.1-14.8C32 82 40 78.1 47 81.9c-.7 4 1.3 7.9 4.5 10.1-4.5 1.1-8.3 4.8-8.3 9.8zM60 61.4c-3.6 3.6-3.5 8.9-1 12.8-3.9-.7-8.1.6-10.4 4C40.9 75.9 38 67.4 37.7 60c-.3-7.1.5-14.1-.2-21.1 7.1.6 14.1-.2 21.1.2 7.4.3 15.9 3.2 18.1 10.9-3.4 2.3-4.7 6.5-4 10.4-3.8-2.5-9.1-2.6-12.7 1zm40.5-26.1h-.3c-1.5.2-2.6 1.6-2.5 3.2.1 1.5 1.3 2.8 2.9 2.8 1.5 0 2.8-1.4 2.9-2.8.1-1.5-1-2.9-2.5-3.2h-.5zm47 19.5c-.1-.1-.2-.2-.3-.2-1.2-.9-3-.7-4 .5-1 1.1-1.1 2.9 0 4s2.9 1 4 0c1.2-1 1.4-2.8.5-4-.1-.1-.1-.2-.2-.3zm19.5 47v-.3c-.2-1.5-1.6-2.6-3.2-2.5-1.5.1-2.8 1.3-2.8 2.9 0 1.5 1.4 2.8 2.8 2.9 1.5.1 2.9-1 3.2-2.5v-.5zm-19.5 47.1c.1-.1.2-.2.2-.3.9-1.2.7-3-.5-4-1.1-1-2.9-1.1-4 0s-1 2.9 0 4c1 1.2 2.8 1.4 4 .5.1-.1.2-.2.3-.2zm-47 19.4h.3c1.5-.2 2.6-1.6 2.5-3.2-.1-1.5-1.3-2.8-2.9-2.8-1.5 0-2.8 1.4-2.9 2.8-.1 1.5 1 2.9 2.5 3.2h.5zm-47.1-19.4c.1.1.2.2.3.2 1.2.9 3 .7 4-.5 1-1.1 1.1-2.9 0-4s-2.9-1-4 0c-1.2 1-1.4 2.8-.5 4 .1.1.2.2.2.3zM34 101.8v.3c.2 1.5 1.6 2.6 3.2 2.5 1.5-.1 2.8-1.3 2.8-2.9 0-1.5-1.4-2.8-2.8-2.9-1.5-.1-2.9 1-3.2 2.5v.5zm19.4-47c-.1.1-.2.2-.2.3-.9 1.2-.7 3 .5 4 1.1 1 2.9 1.1 4 0s1-2.9 0-4c-1-1.2-2.8-1.4-4-.5-.1.1-.2.1-.3.2zm39.2-12.1c.2-1.6-.9-3-2.5-3.3h-.6c-1.5.2-2.6 1.6-2.5 3.2.1 1.5 1.3 2.8 2.9 2.8 1.3 0 2.5-1.3 2.7-2.7zM53 65.6c-1-1.2-2.8-1.5-4.1-.5-.1.1-.2.1-.2.2-.1.1-.2.2-.2.3-.9 1.2-.7 3 .5 4 1.1 1 2.9 1.1 4 0 1-1.1 1-2.9 0-4zm-11.7 44.1c-1.6-.2-3 .9-3.3 2.5v.6c.2 1.5 1.6 2.6 3.2 2.5 1.5-.1 2.8-1.3 2.8-2.9 0-1.3-1.3-2.5-2.7-2.7zm22.9 39.6c-1.2 1-1.5 2.8-.5 4.1.1.1.1.2.2.2.1.1.2.2.3.2 1.2.9 3 .7 4-.5 1-1.1 1.1-2.9 0-4-1.1-1-2.9-1-4 0zm44.2 11.7c-.2 1.6.9 3 2.5 3.3h.6c1.5-.2 2.6-1.6 2.5-3.2-.1-1.5-1.3-2.8-2.9-2.8-1.4 0-2.6 1.3-2.7 2.7zm39.5-22.9c1 1.2 2.8 1.5 4.1.5.1-.1.2-.1.2-.2.1-.1.2-.2.2-.3.9-1.2.7-3-.5-4-1.1-1-2.9-1.1-4 0-1 1.1-.9 2.9 0 4zM159.6 94c1.6.2 3-.9 3.3-2.5v-.6c-.2-1.5-1.6-2.6-3.2-2.5-1.5.1-2.8 1.3-2.8 2.9 0 1.3 1.3 2.5 2.7 2.7zm-22.9-39.6c1.2-1 1.5-2.8.5-4.1-.1-.1-.1-.2-.2-.2-.1-.1-.2-.2-.3-.2-1.2-.9-3-.7-4 .5-1 1.1-1.1 2.9 0 4 1.1 1 2.9.9 4 0zm-25.5-9c1.5 0 2.8-1.4 2.9-2.8.1-1.5-1-2.9-2.5-3.2h-.6c-1.6.2-2.7 1.7-2.5 3.3 0 1.4 1.2 2.7 2.7 2.7zm-43 8.9c1.1-1.1 1-2.9 0-4-1-1.2-2.8-1.4-4-.5-.1.1-.2.1-.3.2l-.2.2c-.9 1.3-.7 3.1.5 4.1 1.1 1 2.9 1.1 4 0zM44 91.1c0-1.5-1.4-2.8-2.8-2.9-1.5-.1-2.9 1-3.2 2.5v.6c.2 1.6 1.7 2.7 3.3 2.5 1.4 0 2.7-1.2 2.7-2.7zm9 43c-1.1-1.1-2.9-1-4 0-1.2 1-1.4 2.8-.5 4 .1.1.1.2.2.3l.2.2c1.3.9 3.1.7 4.1-.5 1-1.1 1-2.9 0-4zm36.7 24.2c-1.5 0-2.8 1.4-2.9 2.8-.1 1.5 1 2.9 2.5 3.2h.6c1.6-.2 2.7-1.7 2.5-3.3 0-1.4-1.2-2.7-2.7-2.7zm43.1-9c-1.1 1.1-1 2.9 0 4 1 1.2 2.8 1.4 4 .5.1-.1.2-.1.3-.2l.2-.2c.9-1.3.7-3.1-.5-4.1-1.2-1-3-1-4 0zm24.1-36.7c0 1.5 1.4 2.8 2.8 2.9 1.5.1 2.9-1 3.2-2.5v-.6c-.2-1.6-1.7-2.7-3.3-2.5-1.4 0-2.7 1.2-2.7 2.7zM148 69.5c1.1 1.1 2.9 1 4 0 1.2-1 1.4-2.8.5-4-.1-.1-.1-.2-.2-.3l-.2-.2c-1.3-.9-3.1-.7-4.1.5-1 1.2-1.1 3 0 4z" fill="#F25922"/><path d="M94.7 87.9c.2-.6.6-1.2 1.1-1.7 1.1-1.2 2.8-1.4 3.5-3.1.2-.6.7-.9 1.2-.9s1 .3 1.2.9c.7 1.6 2.4 1.9 3.5 3.1.5.5.8 1.1 1 1.7.6-.3 1.2-.5 1.9-.5 1.6 0 3 1 4.7.3.6-.2 1.1-.1 1.5.2.3.3.5.9.2 1.5-.7 1.6.3 3 .3 4.7 0 .7-.2 1.3-.5 1.9.6.2 1.2.5 1.7 1 1.2 1.2 1.4 2.8 3.1 3.5.6.2.9.7.9 1.2s-.3 1-.9 1.2c-1.6.7-1.9 2.4-3.1 3.5-.5.5-1.1.8-1.7 1 .3.6.5 1.2.5 1.9 0 1.6-1 3-.3 4.7.2.6.1 1.1-.2 1.5-.3.3-.9.5-1.5.2-1.6-.7-3 .3-4.7.3-.7 0-1.3-.2-1.9-.5-.2.6-.5 1.2-1 1.7-1.1 1.2-2.8 1.4-3.5 3.1-.2.6-.7.9-1.2.9s-1-.3-1.2-.9c-.7-1.6-2.4-1.9-3.5-3.1-.5-.5-.8-1.1-1-1.7-.6.3-1.2.5-1.9.5-1.6 0-3-1-4.7-.3-.6.2-1.1.1-1.5-.2-.3-.3-.5-.9-.2-1.5.7-1.6-.3-3-.3-4.7 0-.7.2-1.4.5-1.9-.6-.2-1.2-.5-1.7-1-1.2-1.1-1.4-2.8-3.1-3.5-.6-.2-.9-.7-.9-1.2s.3-1 .9-1.2c1.6-.7 1.9-2.4 3.1-3.5.5-.5 1.1-.8 1.7-1-.3-.6-.5-1.2-.5-1.9 0-1.6 1-3 .3-4.7-.2-.6-.1-1.1.2-1.5.3-.3.9-.5 1.5-.2 1.6.7 3-.3 4.7-.3.5 0 1.2.2 1.8.5zm5.8 1c-1.4 0-2.8.7-3.6 2.2-.2.3-.4.5-.6.5-.2.1-.5.1-.8 0-1.6-.4-3.1 0-4.1 1-1 1-1.5 2.5-1 4.1.1.3.1.6 0 .8-.1.2-.3.4-.5.6-1.4.8-2.2 2.2-2.2 3.6s.7 2.8 2.2 3.6c.3.2.5.4.5.6.1.2.1.5 0 .8-.4 1.6 0 3.1 1 4.1 1 1 2.5 1.5 4.1 1 .3-.1.6-.1.8 0 .2.1.4.3.6.5.8 1.4 2.2 2.2 3.6 2.2s2.8-.7 3.6-2.2c.2-.3.4-.5.6-.5.2-.1.5-.1.8 0 1.6.4 3.1 0 4.1-1 1-1 1.5-2.5 1-4.1-.1-.3-.1-.6 0-.8.1-.2.3-.4.5-.6 1.4-.8 2.2-2.2 2.2-3.6s-.7-2.8-2.2-3.6c-.3-.2-.5-.4-.5-.6-.1-.2-.1-.5 0-.8.4-1.6 0-3.1-1-4.1-1-1-2.5-1.5-4.1-1-.3.1-.6.1-.8 0-.2-.1-.4-.3-.6-.5-.8-1.5-2.2-2.2-3.6-2.2z" fill="#FFEFE1"/><path d="M100.5 82.2c-.5 0-1 .3-1.2.9-.7 1.6-2.4 1.9-3.5 3.1-.5.5-.8 1.1-1 1.7-.6-.3-1.2-.5-1.9-.5-1.6 0-3 1-4.7.3-.6-.2-1.1-.1-1.5.2-.3.3-.5.9-.2 1.5.7 1.6-.3 3-.3 4.7 0 .7.2 1.3.5 1.9-.6.2-1.2.5-1.7 1-1.2 1.2-1.4 2.8-3.1 3.5-.6.2-.9.7-.9 1.2s.3 1 .9 1.2c1.6.7 1.9 2.4 3.1 3.5.5.5 1.1.8 1.7 1-.3.6-.5 1.2-.5 1.9 0 1.6 1 3 .3 4.7-.2.6-.1 1.1.2 1.5.3.3.9.5 1.5.2 1.6-.7 3 .3 4.7.3.7 0 1.3-.2 1.9-.5.2.6.5 1.2 1 1.7 1.1 1.2 2.8 1.4 3.5 3.1.2.6.7.9 1.2.9s1-.3 1.2-.9c.7-1.6 2.4-1.9 3.5-3.1.5-.5.8-1.1 1-1.7.6.3 1.2.5 1.9.5 1.6 0 3-1 4.7-.3.6.2 1.1.1 1.5-.2.3-.3.5-.9.2-1.5-.7-1.6.3-3 .3-4.7 0-.7-.2-1.4-.5-1.9.6-.2 1.2-.5 1.7-1 1.2-1.1 1.4-2.8 3.1-3.5.6-.2.9-.7.9-1.2s-.3-1-.9-1.2c-1.6-.7-1.9-2.4-3.1-3.5-.5-.5-1.1-.8-1.7-1 .3-.6.5-1.2.5-1.9 0-1.6-1-3-.3-4.7.2-.6.1-1.1-.2-1.5-.3-.3-.9-.5-1.5-.2-1.6.7-3-.3-4.7-.3-.7 0-1.3.2-1.9.5-.2-.6-.5-1.2-1-1.7-1.1-1.2-2.8-1.4-3.5-3.1-.3-.6-.7-.9-1.2-.9zm-6.8 3.4s.1 0 0 0c.1 0 .1 0 .2-.1 1.4-.6 2.1-2.2 1.5-3.6-.1-.3-.3-.5-.5-.8 1.9-.5 3.7-.7 5.6-.7 1.9 0 3.7.2 5.6.7-.2.2-.4.5-.5.8-.6 1.4.1 3 1.5 3.6h.1s.1 0 .1.1c1.4.6 3.1-.1 3.6-1.5.1-.3.2-.6.2-.9 1.6 1 3.1 2.2 4.4 3.5 1.3 1.3 2.5 2.8 3.5 4.4-.3 0-.6 0-.9.2-1.4.5-2 2.2-1.5 3.6 0 0 0 .1.1.1v.1c.6 1.4 2.2 2.1 3.6 1.5.3-.1.5-.3.8-.5.5 1.9.7 3.7.7 5.6 0 1.9-.2 3.7-.7 5.6-.2-.2-.5-.4-.8-.5-1.4-.6-3 .1-3.6 1.5v.1s0 .1-.1.1c-.6 1.4.1 3.1 1.5 3.6.3.1.6.2.9.2-1 1.6-2.2 3.1-3.5 4.4-1.3 1.3-2.8 2.5-4.4 3.5 0-.3 0-.6-.2-.9-.5-1.4-2.2-2-3.6-1.5 0 0-.1 0-.1.1h-.1c-1.4.6-2.1 2.2-1.5 3.6.1.3.3.5.5.8-1.9.5-3.7.7-5.6.7-1.9 0-3.7-.2-5.6-.7.2-.2.4-.5.5-.8.6-1.4-.1-3-1.5-3.6h-.1s-.1 0-.1-.1c-1.4-.6-3.1.1-3.6 1.5-.1.3-.2.6-.2.9-1.6-1-3.1-2.2-4.4-3.5-1.3-1.3-2.5-2.8-3.5-4.4.3 0 .6 0 .9-.2 1.4-.5 2-2.2 1.5-3.6 0 0 0-.1-.1-.1v-.1c-.6-1.4-2.2-2.1-3.6-1.5-.3.1-.5.3-.8.5-.5-1.9-.7-3.7-.7-5.6 0-1.9.2-3.7.7-5.6.2.2.5.4.8.5 1.4.6 3-.1 3.6-1.5V95s0-.1.1-.1c.6-1.4-.1-3.1-1.5-3.6-.3-.1-.6-.2-.9-.2 1-1.6 2.2-3.1 3.5-4.4 1.3-1.3 2.8-2.5 4.4-3.5 0 .3 0 .6.2.9.5 1.4 2.2 2 3.6 1.5-.1.1 0 0 0 0z" fill="#222640"/><path d="M96.2 91.6c.2-.1.4-.3.6-.5.8-1.4 2.2-2.2 3.6-2.2s2.8.7 3.6 2.2c.2.3.4.5.6.5.2.1.5.1.8 0 1.6-.4 3.1 0 4.1 1 1 1 1.5 2.5 1 4.1-.1.3-.1.6 0 .8.1.2.3.4.5.6 1.4.8 2.2 2.2 2.2 3.6s-.7 2.8-2.2 3.6c-.3.2-.5.4-.5.6-.1.2-.1.5 0 .8.4 1.6 0 3.1-1 4.1-1 1-2.5 1.5-4.1 1-.3-.1-.6-.1-.8 0-.2.1-.4.3-.6.5-.8 1.4-2.2 2.2-3.6 2.2s-2.8-.7-3.6-2.2c-.2-.3-.4-.5-.6-.5-.2-.1-.5-.1-.8 0-1.6.4-3.1 0-4.1-1-1-1-1.5-2.5-1-4.1.1-.3.1-.6 0-.8-.1-.2-.3-.4-.5-.6-1.4-.8-2.2-2.2-2.2-3.6s.7-2.8 2.2-3.6c.3-.2.5-.4.5-.6.1-.2.1-.5 0-.8-.4-1.6 0-3.1 1-4.1 1-1 2.5-1.5 4.1-1 .3.1.6.1.8 0zm4.3-.6c-1.3 0-2.4.9-2.5 2.2 0 .4.1.8.2 1.1-.3.1-.5.2-.7.3-.2.1-.5.2-.7.3-.1-.4-.3-.7-.6-1-1-.9-2.4-.7-3.3.2-.9.9-1 2.4-.2 3.3.3.3.6.5 1 .6-.1.2-.2.5-.3.7-.1.2-.2.5-.3.7-.3-.2-.7-.3-1.1-.2-1.3.1-2.2 1.2-2.2 2.5s.9 2.4 2.2 2.5c.4 0 .8-.1 1.1-.2.1.3.2.5.3.7.1.2.2.5.3.7-.4.1-.7.3-1 .6-.9 1-.7 2.4.2 3.3.9.9 2.4 1 3.3.2.3-.3.5-.6.6-1 .2.1.5.2.7.3.2.1.5.2.7.3-.2.3-.3.7-.2 1.1.1 1.3 1.2 2.2 2.5 2.2s2.4-.9 2.5-2.2c0-.4-.1-.8-.2-1.1.3-.1.5-.2.7-.3.2-.1.5-.2.7-.3.1.4.3.7.6 1 1 .9 2.4.7 3.3-.2.9-.9 1-2.4.2-3.3-.3-.3-.6-.5-1-.6.1-.2.2-.5.3-.7.1-.2.2-.5.3-.7.3.2.7.3 1.1.2 1.3-.1 2.2-1.2 2.2-2.5s-.9-2.4-2.2-2.5c-.4 0-.8.1-1.1.2-.1-.3-.2-.5-.3-.7-.1-.2-.2-.5-.3-.7.4-.1.7-.3 1-.6.9-1 .7-2.4-.2-3.3-.9-.9-2.4-1-3.3-.2-.3.3-.5.6-.6 1-.2-.1-.5-.2-.7-.3-.2-.1-.5-.2-.7-.3.2-.3.3-.7.2-1.1-.1-1.3-1.3-2.2-2.5-2.2z" fill="#8FBFB2"/><path d="M97.5 94.6c.2-.1.5-.2.7-.3-.1-.3-.2-.7-.2-1.1.1-1.3 1.2-2.2 2.5-2.2s2.4.9 2.5 2.2c0 .4-.1.8-.2 1.1.3.1.5.2.7.3.2.1.5.2.7.3.1-.4.3-.7.6-1 1-.9 2.4-.7 3.3.2.9.9 1 2.4.2 3.3-.3.3-.6.5-1 .6.1.2.2.5.3.7.1.2.2.5.3.7.3-.2.7-.3 1.1-.2 1.3.1 2.2 1.2 2.2 2.5s-.9 2.4-2.2 2.5c-.4 0-.8-.1-1.1-.2-.1.3-.2.5-.3.7-.1.2-.2.5-.3.7.4.1.7.3 1 .6.9 1 .7 2.4-.2 3.3-.9.9-2.4 1-3.3.2-.3-.3-.5-.6-.6-1-.2.1-.5.2-.7.3-.2.1-.5.2-.7.3.2.3.3.7.2 1.1-.1 1.3-1.2 2.2-2.5 2.2s-2.4-.9-2.5-2.2c0-.4.1-.8.2-1.1-.3-.1-.5-.2-.7-.3-.2-.1-.5-.2-.7-.3-.1.4-.3.7-.6 1-1 .9-2.4.7-3.3-.2-.9-.9-1-2.4-.2-3.3.3-.3.6-.5 1-.6-.1-.2-.2-.5-.3-.7-.1-.2-.2-.5-.3-.7-.3.2-.7.3-1.1.2-1.3-.1-2.2-1.2-2.2-2.5s.9-2.4 2.2-2.5c.4 0 .8.1 1.1.2.1-.3.2-.5.3-.7.1-.2.2-.5.3-.7-.4-.1-.7-.3-1-.6-.9-1-.7-2.4.2-3.3.9-.9 2.4-1 3.3-.2.3.3.5.6.6 1 .2 0 .4-.2.7-.3zm3 1.8c-.8.1-1.4.3-2 .5-.6.2-1.2.6-1.8 1-.5.6-.8 1.2-1 1.8-.3.6-.5 1.3-.5 2 .1.8.3 1.4.5 2 .2.6.6 1.2 1 1.8.6.5 1.2.8 1.8 1 .6.3 1.3.5 2 .5.8-.1 1.4-.3 2-.5.6-.2 1.2-.6 1.8-1 .5-.6.8-1.2 1-1.8.3-.6.5-1.3.5-2-.1-.8-.3-1.4-.5-2-.2-.6-.6-1.2-1-1.8-.6-.5-1.2-.8-1.8-1-.6-.2-1.3-.4-2-.5z" fill="#FFEFE1"/><path d="M100.5 54.3c-2.6 0-4.3 2.9-4 5.4-.5 0-1 .1-1.6.2-1.4-4 .7-10.7 5.6-10.7 4.9 0 7 6.8 5.6 10.7-.5-.1-1.1-.1-1.6-.2.3-2.5-1.4-5.4-4-5.4zm33.6 13.9c-1.9-1.9-5.1-1-6.7 1-.4-.3-.8-.7-1.2-1 1.8-3.8 8.1-7.1 11.6-3.6 3.4 3.4.1 9.7-3.6 11.6-.3-.4-.7-.8-1-1.2 1.9-1.7 2.8-4.9.9-6.8zm13.9 33.6c0-2.6-2.9-4.3-5.4-4 0-.5-.1-1-.2-1.6 4-1.4 10.7.7 10.7 5.6 0 4.9-6.8 7-10.7 5.6.1-.5.1-1.1.2-1.6 2.5.4 5.4-1.3 5.4-4zm-13.9 33.7c1.9-1.9 1-5.1-1-6.7.3-.4.7-.8 1-1.2 3.8 1.8 7.1 8.1 3.6 11.6-3.4 3.4-9.7.1-11.6-3.6.4-.3.8-.7 1.2-1 1.7 1.9 4.9 2.7 6.8.9zm-33.6 13.9c2.6 0 4.3-2.9 4-5.4.5 0 1-.1 1.6-.2 1.4 4-.7 10.7-5.6 10.7-4.9 0-7-6.8-5.6-10.7.5.1 1.1.1 1.6.2-.4 2.5 1.3 5.4 4 5.4zm-33.7-13.9c1.9 1.9 5.1 1 6.7-1 .4.3.8.7 1.2 1-1.8 3.8-8.1 7.1-11.6 3.6-3.4-3.4-.1-9.7 3.6-11.6.3.4.7.8 1 1.2-1.9 1.6-2.7 4.9-.9 6.8zm-13.9-33.7c0 2.6 2.9 4.3 5.4 4 0 .5.1 1 .2 1.6-4 1.4-10.7-.7-10.7-5.6 0-4.9 6.8-7 10.7-5.6-.1.5-.1 1.1-.2 1.6-2.5-.3-5.4 1.4-5.4 4zm13.9-33.6c-1.9 1.9-1 5.1 1 6.7-.3.4-.7.8-1 1.2-3.8-1.8-7.1-8.1-3.6-11.6 3.4-3.4 9.7-.1 11.6 3.6-.4.3-.8.7-1.2 1-1.6-1.9-4.9-2.8-6.8-.9z" fill="#8FBFB2"/><path d="M98.4 97c.6-.3 1.3-.5 2-.5.8.1 1.4.3 2 .5.6.2 1.2.6 1.8 1 .5.6.8 1.2 1 1.8.3.6.5 1.3.5 2-.1.8-.3 1.4-.5 2-.2.6-.6 1.2-1 1.8-.6.5-1.2.8-1.8 1-.6.3-1.3.5-2 .5-.8-.1-1.4-.3-2-.5-.6-.2-1.2-.6-1.8-1-.5-.6-.8-1.2-1-1.8-.3-.6-.5-1.3-.5-2 .1-.8.3-1.4.5-2 .2-.6.6-1.2 1-1.8.6-.5 1.2-.8 1.8-1zm2.1 2.6c-.3 0-.5 0-.7.1h-.1c-.2.1-.4.3-.6.5-.2.2-.3.4-.5.6v.1c-.1.2-.1.5-.1.7 0 .3 0 .5.1.7v.1c.1.2.3.4.5.6.2.2.4.3.6.5h.1c.2.1.5.1.7.1.3 0 .5 0 .7-.1h.1c.2-.1.4-.3.6-.5.2-.2.3-.4.5-.6v-.1c.1-.2.1-.5.1-.7 0-.3 0-.5-.1-.7v-.1c-.1-.2-.3-.4-.5-.6-.2-.2-.4-.3-.6-.5h-.1c-.2-.1-.5-.1-.7-.1z" fill="#222640"/><path d="M100.5 41.4c-1.5 0-2.8-1.4-2.9-2.8-.1-1.5 1-2.9 2.5-3.2h.6c1.5.2 2.6 1.6 2.5 3.2 0 1.4-1.2 2.8-2.7 2.8zm42.7 17.7c-1.1-1.1-1-2.9 0-4 1-1.2 2.8-1.4 4-.5.1.1.2.1.3.2.1.1.2.2.2.3.9 1.2.7 3-.5 4-1.1 1-2.9 1.1-4 0zm17.7 42.7c0-1.5 1.4-2.8 2.8-2.9 1.5-.1 2.9 1 3.2 2.5v.6c-.2 1.5-1.6 2.6-3.2 2.5-1.4.1-2.8-1.1-2.8-2.7zm-17.7 42.8c1.1-1.1 2.9-1 4 0 1.2 1 1.4 2.8.5 4-.1.1-.1.2-.2.3-.1.1-.2.2-.3.2-1.2.9-3 .7-4-.5-1-1.1-1.1-2.9 0-4zm-42.7 17.7c1.5 0 2.8 1.4 2.9 2.8.1 1.5-1 2.9-2.5 3.2h-.6c-1.5-.2-2.6-1.6-2.5-3.2-.1-1.4 1.1-2.8 2.7-2.8zm-42.8-17.7c1.1 1.1 1 2.9 0 4-1 1.2-2.8 1.4-4 .5-.1-.1-.2-.1-.3-.2-.1-.1-.2-.2-.2-.3-.9-1.2-.7-3 .5-4 1.1-1 2.9-1.1 4 0zM40 101.8c0 1.5-1.4 2.8-2.8 2.9-1.5.1-2.9-1-3.2-2.5v-.6c.2-1.5 1.6-2.6 3.2-2.5 1.4 0 2.8 1.2 2.8 2.7zm17.7-42.7c-1.1 1.1-2.9 1-4 0-1.2-1-1.4-2.8-.5-4 .1-.1.1-.2.2-.3.1-.1.2-.2.3-.2 1.2-.9 3-.7 4 .5 1 1.1 1.1 2.9 0 4zm41.9 40.6s.1 0 0 0c.1 0 .1-.1.1-.1.2-.1.5-.1.7-.1.3 0 .5 0 .7.1h.1c.2.1.4.3.6.5.2.2.3.4.5.6v.1c.1.2.1.5.1.7 0 .3 0 .5-.1.7v.1c-.1.2-.3.4-.5.6-.2.2-.4.3-.6.5h-.1c-.2.1-.5.1-.7.1-.3 0-.5 0-.7-.1h-.1c-.2-.1-.4-.3-.6-.5-.2-.2-.3-.4-.5-.6v-.1c-.1-.2-.1-.5-.1-.7 0-.3 0-.5.1-.7v-.1c.1-.2.3-.4.5-.6.2-.2.4-.3.6-.5-.1.2-.1.2 0 .1-.1 0-.1 0 0 0 0 0-.1 0 0 0z" fill="#FFEFE1"/><path d="M100.5 72.1h-1.7c0-1-.2-2-.2-2.9.6 0 1.3-.1 1.9-.1.6 0 1.3 0 1.9.1 0 1-.2 2-.2 2.9h-1.7zm21 8.7l-1.2-1.2c.7-.7 1.3-1.5 1.9-2.2.5.4.9.9 1.4 1.3.5.5.9.9 1.3 1.4-.7.7-1.5 1.3-2.2 1.9-.4-.3-.8-.8-1.2-1.2zm8.7 21v-1.7c1 0 2-.2 2.9-.2 0 .6.1 1.3.1 1.9 0 .6 0 1.3-.1 1.9-1 0-2-.2-2.9-.2v-1.7zm-8.7 21l1.2-1.2c.7.7 1.5 1.3 2.2 1.9-.4.5-.9.9-1.3 1.4-.5.5-.9.9-1.4 1.3-.7-.7-1.3-1.5-1.9-2.2.3-.3.8-.7 1.2-1.2zm-21 8.7h1.7c0 1 .2 2 .2 2.9-.6 0-1.3.1-1.9.1-.6 0-1.3 0-1.9-.1 0-1 .2-2 .2-2.9.5 0 1.1.1 1.7 0zm-21-8.7l1.2 1.2c-.7.7-1.3 1.5-1.9 2.2-.5-.4-.9-.9-1.4-1.3-.5-.5-.9-.9-1.3-1.4.7-.7 1.5-1.3 2.2-1.9.4.4.7.8 1.2 1.2zm-8.7-21v1.7c-1 0-2 .2-2.9.2 0-.6-.1-1.3-.1-1.9 0-.6 0-1.3.1-1.9 1 0 2 .2 2.9.2v1.7zm8.7-21L78.3 82c-.7-.7-1.5-1.3-2.2-1.9.4-.5.9-.9 1.3-1.4.5-.5.9-.9 1.4-1.3.7.7 1.3 1.5 1.9 2.2l-1.2 1.2zm21-21.3H99c-.1-1 .3-2.7 1.5-2.7s1.6 1.7 1.5 2.7h-1.5zm29.9 12.4l-1-1c.6-.8 2.1-1.8 3-.9.9.9-.1 2.3-.9 3-.4-.4-.8-.7-1.1-1.1zm12.4 29.9v-1.5c1-.1 2.7.3 2.7 1.5s-1.7 1.6-2.7 1.5v-1.5zm-12.4 30l1-1c.8.6 1.8 2.1.9 3-.9.9-2.3-.1-3-.9l1.1-1.1zm-29.9 12.4h1.5c.1 1-.3 2.7-1.5 2.7s-1.6-1.7-1.5-2.7h1.5zm-30-12.4l1 1c-.6.8-2.1 1.8-3 .9-.9-.9.1-2.3.9-3 .4.4.8.7 1.1 1.1zm-12.4-30v1.5c-1 .1-2.7-.3-2.7-1.5s1.7-1.6 2.7-1.5v1.5zm12.4-29.9l-1 1c-.8-.6-1.8-2.1-.9-3 .9-.9 2.3.1 3 .9-.4.4-.7.8-1.1 1.1zM96 69.5c0 1 .2 2 .2 3-1 .1-2 .3-2.9.6-.2-1-.4-1.9-.8-2.9 1.2-.4 2.3-.6 3.5-.7zM74.4 82.1c.7.7 1.5 1.2 2.2 1.9-.6.8-1.2 1.6-1.7 2.5-.8-.6-1.7-1.1-2.6-1.5.7-1 1.4-2 2.1-2.9zm-6.3 24.2c1 0 2-.2 3-.2.1 1 .3 2 .6 2.9-1 .2-1.9.4-2.9.8-.3-1.2-.6-2.3-.7-3.5zm12.6 21.6c.7-.7 1.2-1.5 1.9-2.2.8.6 1.6 1.2 2.5 1.7-.6.8-1.1 1.7-1.5 2.6-1-.7-1.9-1.4-2.9-2.1zm24.2 6.3c0-1-.2-2-.2-3 1-.1 2-.3 2.9-.6.2 1 .4 1.9.8 2.9-1.1.4-2.3.6-3.5.7zm21.6-12.6c-.7-.7-1.5-1.2-2.2-1.9.6-.8 1.2-1.6 1.7-2.5.8.6 1.7 1.1 2.6 1.5-.7 1-1.4 1.9-2.1 2.9zm6.3-24.2c-1 0-2 .2-3 .2-.1-1-.3-2-.6-2.9 1-.2 1.9-.4 2.9-.8.4 1.1.6 2.3.7 3.5zm-12.6-21.6c-.7.7-1.2 1.5-1.9 2.2-.8-.6-1.6-1.2-2.5-1.7.6-.8 1.1-1.7 1.5-2.6 1 .7 2 1.4 2.9 2.1zm-15.3-6.3c0 1-.2 2-.2 3 1 .1 2 .3 2.9.6.2-1 .4-1.9.8-2.9-1.1-.4-2.3-.6-3.5-.7zm-24.2 6.3c.7.7 1.2 1.5 1.9 2.2.8-.6 1.6-1.2 2.5-1.7-.6-.8-1.1-1.7-1.5-2.6-1 .7-1.9 1.4-2.9 2.1zM68.1 97.4c1 0 2 .2 3 .2.1-1 .3-2 .6-2.9-1-.2-1.9-.4-2.9-.8-.3 1.1-.6 2.3-.7 3.5zm6.3 24.2c.7-.7 1.5-1.2 2.2-1.9-.6-.8-1.2-1.6-1.7-2.5-.8.6-1.7 1.1-2.6 1.5.7 1 1.4 1.9 2.1 2.9zM96 134.2c0-1 .2-2 .2-3-1-.1-2-.3-2.9-.6-.2 1-.4 1.9-.8 2.9 1.2.4 2.3.6 3.5.7zm24.2-6.3c-.7-.7-1.2-1.5-1.9-2.2-.8.6-1.6 1.2-2.5 1.7.6.8 1.1 1.7 1.5 2.6 1-.7 2-1.4 2.9-2.1zm12.6-21.6c-1 0-2-.2-3-.2-.1 1-.3 2-.6 2.9 1 .2 1.9.4 2.9.8.4-1.2.6-2.3.7-3.5zm-6.3-24.2c-.7.7-1.5 1.2-2.2 1.9.6.8 1.2 1.6 1.7 2.5.8-.6 1.7-1.1 2.6-1.5-.7-1-1.4-2-2.1-2.9z" fill="#222640"/><path d="M90 39.4c1.6.2 2.7 1.7 2.5 3.3-.1 1.4-1.4 2.7-2.9 2.7s-2.8-1.4-2.9-2.8c-.1-1.5 1-2.9 2.5-3.2h.8zM48.9 65.1c1.3-.9 3.1-.7 4.1.5.9 1.1 1 2.9-.1 3.9-1.1 1.1-2.9 1-4 0-1.2-1-1.4-2.8-.5-4 .1-.1.1-.2.2-.3.2 0 .3-.1.3-.1zM38 112.3c.2-1.6 1.7-2.7 3.3-2.5 1.4.1 2.7 1.4 2.7 2.9s-1.4 2.8-2.8 2.9c-1.5.1-2.9-1-3.2-2.5v-.8zm25.7 41.1c-.9-1.3-.7-3.1.5-4.1 1.1-.9 2.9-1 3.9.1 1.1 1.1 1 2.9 0 4-1 1.2-2.8 1.4-4 .5-.1-.1-.2-.1-.3-.2 0-.2-.1-.3-.1-.3zm47.2 10.9c-1.6-.2-2.7-1.7-2.5-3.3.1-1.4 1.4-2.7 2.9-2.7s2.8 1.4 2.9 2.8c.1 1.5-1 2.9-2.5 3.2h-.8zm41.1-25.7c-1.3.9-3.1.7-4.1-.5-.9-1.1-1-2.9.1-3.9 1.1-1.1 2.9-1 4 0 1.2 1 1.4 2.8.5 4-.1.1-.1.2-.2.3-.2 0-.2.1-.3.1zm10.9-47.2c-.2 1.6-1.7 2.7-3.3 2.5-1.4-.1-2.7-1.4-2.7-2.9s1.4-2.8 2.8-2.9c1.5-.1 2.9 1 3.2 2.5v.8zm-25.7-41.1c.9 1.3.7 3.1-.5 4.1-1.1.9-2.9 1-3.9-.1-1.1-1.1-1-2.9 0-4 1-1.2 2.8-1.4 4-.5.1.1.2.1.3.2 0 .2.1.2.1.3zm-26.3-10.9c-1.6.2-2.7 1.7-2.5 3.3.1 1.4 1.4 2.7 2.9 2.7s2.8-1.4 2.9-2.8c.1-1.5-1-2.9-2.5-3.2h-.8zM63.7 50.3c-.9 1.3-.7 3.1.5 4.1 1.1.9 2.9 1 3.9-.1 1.1-1.1 1-2.9 0-4-1-1.2-2.8-1.4-4-.5-.1.1-.2.1-.3.2 0 .2-.1.2-.1.3zM38 91.4c.2 1.6 1.7 2.7 3.3 2.5 1.4-.1 2.7-1.4 2.7-2.9s-1.4-2.8-2.8-2.9c-1.5-.1-2.9 1-3.2 2.5v.8zm10.9 47.2c1.3.9 3.1.7 4.1-.5.9-1.1 1-2.9-.1-3.9-1.1-1.1-2.9-1-4 0-1.2 1-1.4 2.8-.5 4 .1.1.1.2.2.3.2 0 .3.1.3.1zM90 164.3c1.6-.2 2.7-1.7 2.5-3.3-.1-1.4-1.4-2.7-2.9-2.7s-2.8 1.4-2.9 2.8c-.1 1.5 1 2.9 2.5 3.2h.8zm47.2-10.9c.9-1.3.7-3.1-.5-4.1-1.1-.9-2.9-1-3.9.1-1.1 1.1-1 2.9 0 4 1 1.2 2.8 1.4 4 .5.1-.1.2-.1.3-.2 0-.2.1-.3.1-.3zm25.7-41.1c-.2-1.6-1.7-2.7-3.3-2.5-1.4.1-2.7 1.4-2.7 2.9s1.4 2.8 2.8 2.9c1.5.1 2.9-1 3.2-2.5v-.8zM152 65.1c-1.3-.9-3.1-.7-4.1.5-.9 1.1-1 2.9.1 3.9 1.1 1.1 2.9 1 4 0 1.2-1 1.4-2.8.5-4-.1-.1-.1-.2-.2-.3-.2 0-.2-.1-.3-.1z" fill="#FFEFE1"/><path d="M87.9 71.6c.7-.3 1.4-.5 2.1-.8.3.9.6 1.9.8 2.9-.5.2-1.1.4-1.6.6-.1 0-.1 0-.1.1h-.2c-.5.2-1.1.5-1.6.7-.6-.8-1.1-1.7-1.5-2.6l2.1-.9zm25.1 0c.7.3 1.4.6 2.1 1-.4.9-.9 1.8-1.5 2.6-.5-.3-1-.5-1.6-.7h-.1l-.1-.1c-.5-.2-1.1-.4-1.6-.6.2-1 .4-1.9.8-2.9.6.1 1.3.4 2 .7zm17.7 17.7c.3.7.5 1.4.8 2.1-.9.3-1.9.6-2.9.8-.2-.5-.4-1.1-.6-1.6 0-.1 0-.1-.1-.1v-.1c-.2-.5-.5-1.1-.7-1.6.8-.6 1.7-1.1 2.6-1.5.3.6.6 1.3.9 2zm0 25.1c-.3.7-.6 1.4-1 2.1-.9-.4-1.8-.9-2.6-1.5.3-.5.5-1 .7-1.6v-.2l.1-.1c.2-.5.4-1.1.6-1.6 1 .2 1.9.4 2.9.8-.1.7-.4 1.4-.7 2.1zM113 132.1c-.7.3-1.4.5-2.1.8-.3-.9-.6-1.9-.8-2.9.5-.2 1.1-.4 1.6-.6.1 0 .1 0 .1-.1h.1c.5-.2 1.1-.5 1.6-.7.6.8 1.1 1.7 1.5 2.6-.6.3-1.3.6-2 .9zm-25.1 0c-.7-.3-1.4-.6-2.1-1 .4-.9.9-1.8 1.5-2.6.5.3 1 .5 1.6.7h.2l.1.1c.5.2 1.1.4 1.6.6-.2 1-.4 1.9-.8 2.9-.7-.1-1.4-.4-2.1-.7zm-17.7-17.7c-.3-.7-.5-1.4-.8-2.1.9-.3 1.9-.6 2.9-.8.2.5.4 1.1.6 1.6 0 .1 0 .1.1.1v.2c.2.5.5 1.1.7 1.6-.8.6-1.7 1.1-2.6 1.5l-.9-2.1zm0-25.1c.3-.7.6-1.4 1-2.1.9.4 1.8.9 2.6 1.5-.3.5-.5 1-.7 1.6v.1l-.1.1c-.2.5-.4 1.1-.6 1.6-1-.2-1.9-.4-2.9-.8.1-.6.4-1.3.7-2z" fill="#222640"/><path d="M80.3 53.1c4.4-1.8 9.1 3.6 9.3 7.7-.5.1-1 .3-1.6.4-.7-2.4-3.3-4.4-5.7-3.4-2.5 1-2.8 4.2-1.7 6.4-.5.3-.9.5-1.4.8-2.8-2.9-3.3-10.1 1.1-11.9zm40.3 0c4.4 1.8 3.9 8.9 1.1 12-.5-.3-.9-.5-1.4-.8 1.2-2.2.8-5.4-1.7-6.4s-5 1-5.7 3.4c-.5-.2-1-.3-1.6-.4.3-4.2 5-9.6 9.3-7.8zm28.6 28.6c1.8 4.4-3.6 9.1-7.7 9.3-.1-.5-.3-1-.4-1.6 2.4-.7 4.4-3.3 3.4-5.7-1-2.5-4.2-2.8-6.4-1.7-.3-.5-.5-.9-.8-1.4 2.9-2.8 10.1-3.3 11.9 1.1zm0 40.3c-1.8 4.4-8.9 3.9-12 1.1.3-.5.5-.9.8-1.4 2.2 1.2 5.4.8 6.4-1.7s-1-5-3.4-5.7c.2-.5.3-1 .4-1.6 4.2.2 9.6 4.9 7.8 9.3zm-28.6 28.6c-4.4 1.8-9.1-3.6-9.3-7.7.5-.1 1-.3 1.6-.4.7 2.4 3.3 4.4 5.7 3.4 2.5-1 2.8-4.2 1.7-6.4.5-.3.9-.5 1.4-.8 2.8 2.9 3.3 10-1.1 11.9zm-40.3 0c-4.4-1.8-3.9-8.9-1.1-12 .5.3.9.5 1.4.8-1.2 2.2-.8 5.4 1.7 6.4s5-1 5.7-3.4c.5.2 1 .3 1.6.4-.2 4.2-4.9 9.6-9.3 7.8zM51.7 122c-1.8-4.4 3.6-9.1 7.7-9.3.1.5.3 1 .4 1.6-2.4.7-4.4 3.3-3.4 5.7 1 2.5 4.2 2.8 6.4 1.7.3.5.5.9.8 1.4-2.9 2.8-10 3.3-11.9-1.1zm0-40.3c1.8-4.4 8.9-3.9 12-1.1-.2.4-.5.9-.7 1.4-2.2-1.2-5.4-.8-6.4 1.7s1 5 3.4 5.7c-.2.5-.3 1-.4 1.6-4.3-.3-9.7-5-7.9-9.3z" fill="#8FBFB2"/><path d="M83.2 60.2c1-.4 2.1.9 2.4 1.9-.4.2-.8.3-1.3.5 0 0-.1 0-.1.1h-.1l-1.2.6c-.5-.9-.7-2.6.3-3.1zm34.5 0c1.1.4.8 2.1.4 3l-1.2-.6h-.1l-.1-.1c-.4-.2-.8-.3-1.3-.5.2-.8 1.3-2.2 2.3-1.8zm24.4 24.4c.4 1-.9 2.1-1.9 2.4-.2-.4-.3-.8-.5-1.3 0 0 0-.1-.1-.1v-.1l-.6-1.2c.9-.5 2.6-.7 3.1.3zm0 34.5c-.4 1-2.1.8-3 .4l.6-1.2v-.1l.1-.1c.2-.4.3-.8.5-1.3.8.2 2.2 1.2 1.8 2.3zm-24.4 24.4c-1 .4-2.1-.9-2.4-1.9.4-.2.8-.3 1.3-.5 0 0 .1 0 .1-.1h.1l1.2-.6c.5.9.7 2.6-.3 3.1zm-34.5 0c-1-.4-.8-2.1-.4-3l1.2.6h.1l.1.1c.4.2.8.3 1.3.5-.2.8-1.2 2.2-2.3 1.8zm-24.4-24.4c-.4-1 .9-2.1 1.9-2.4.2.4.3.8.5 1.3 0 0 0 .1.1.1v.1l.6 1.2c-.9.5-2.6.7-3.1-.3zm0-34.5c.4-1.1 2.1-.8 3-.4l-.6 1.2v.1l-.1.1c-.2.4-.3.8-.5 1.3-.8-.2-2.2-1.3-1.8-2.3z" fill="#222640"/></g><defs><filter id="filter0_d" x=".9" y="6.2" width="199.1" height="199.2" filterUnits="userSpaceOnUse" color-interpolation-filters="sRGB"><feFlood flood-opacity="0" result="BackgroundImageFix"/><feColorMatrix in="SourceAlpha" values="0 0 0 0 0 0 0 0 0 0 0 0 0 0 0 0 0 0 127 0"/><feOffset dy="4"/><feGaussianBlur stdDeviation="2"/><feColorMatrix values="0 0 0 0 0 0 0 0 0 0 0 0 0 0 0 0 0 0 0.25 0"/><feBlend in2="BackgroundImageFix" result="effect1_dropShadow"/><feBlend in="SourceGraphic" in2="effect1_dropShadow" result="shape"/></filter></defs></svg>